<svg width="100" height="100" xmlns="http://www.w3.org/2000/svg">
 <!-- Created with Method Draw - http://github.com/duopixel/Method-Draw/ -->

 <g>
  <title>background</title>
  <rect fill="none" id="canvas_background" height="102" width="102" y="-1" x="-1"/>
  <g display="none" overflow="visible" y="0" x="0" height="100%" width="100%" id="canvasGrid">
   <rect fill="url(#gridpattern)" stroke-width="0" y="0" x="0" height="100%" width="100%"/>
  </g>
 </g>
 <g>
  <title>Layer 1</title>
  <g stroke="null" id="svg_72">
   <path stroke="#221e1c" id="svg_4" d="m6.208494,14.002965c-0.383692,-0.654231 0.232478,-1.561513 0.970031,-1.514194c3.386363,-0.010287 6.772727,0.005143 10.158062,-0.008229c0.024688,0.149156 0.049376,0.298313 0.051433,0.449526c-0.002057,6.37772 0.001029,12.755439 -0.001029,19.133159c-0.001029,0.374434 0.006172,0.748868 -0.012344,1.123302c-0.125497,-0.08435 -0.21602,-0.20059 -0.28494,-0.33123c-3.625014,-6.28514 -7.259285,-12.566165 -10.881213,-18.852334m0.524619,-0.553421c-0.064806,0.153271 0.058634,0.30037 0.114182,0.437182c3.231035,5.582562 6.453841,11.171296 9.677675,16.759001c0.052462,0.102866 0.134755,0.173844 0.245851,0.214991c0.014401,-5.909677 -0.002057,-11.819355 0.008229,-17.730061c-0.557536,-0.028803 -1.116101,-0.014401 -1.673637,-0.018516c-2.606636,0.002057 -5.213272,-0.002057 -7.818879,0.002057c-0.230421,-0.019545 -0.503017,0.08435 -0.553421,0.335345z" opacity="0.69" stroke-width="0.09375" fill="#221e1c"/>
   <path stroke="#221e1c" id="svg_5" d="m18.97422,12.484656c3.407965,0.005143 6.815931,-0.003086 10.223896,0.004115c0.158414,0.008229 0.327115,-0.012344 0.479358,0.049376c0.060691,0.19236 0.032917,0.399122 0.039089,0.598683c0.001029,13.303718 0,26.607435 0,39.911153c-0.006172,0.504046 0.023659,1.010149 -0.033946,1.512137c-0.206762,-0.201618 -0.332259,-0.462899 -0.472157,-0.709778c-3.397679,-5.89219 -6.801529,-11.781294 -10.201266,-17.671427c-0.072007,-0.125497 -0.058634,-0.274653 -0.064806,-0.412494c0.003086,-7.268543 0,-14.538115 0.001029,-21.807687c0.003086,-0.491702 -0.01543,-0.984432 0.028803,-1.474076m0.581195,0.601769c-0.013373,7.422843 0.002057,14.845686 -0.007201,22.268528c0.009258,0.261281 -0.043204,0.551364 0.119325,0.780756c2.962554,5.130978 5.926136,10.262985 8.887661,15.394992c0.162529,0.272596 0.283911,0.579138 0.53182,0.790014c0.034975,-0.236593 0.049376,-0.475243 0.048347,-0.712864c0,-12.310028 0,-24.620055 0,-36.930083c-0.002057,-0.526676 0.006172,-1.054381 -0.010287,-1.581057c-0.592511,-0.03086 -1.18605,-0.010287 -1.778561,-0.016459c-2.597378,0.004115 -5.193727,-0.006172 -7.791105,0.006172z" opacity="0.69" stroke-width="0.09375" fill="#221e1c"/>
   <path stroke="#221e1c" id="svg_6" d="m31.290419,12.646157c1.903029,0.187217 3.771084,0.711836 5.49924,1.530653c1.219996,0.623371 2.415304,1.316691 3.464542,2.203399c0.672747,0.627485 1.376353,1.227197 1.985322,1.920517c1.442188,1.582086 2.646754,3.364761 3.772113,5.181383c0.291112,0.440268 0.156357,0.988547 0.17693,1.482305c0,19.065267 -0.002057,38.130534 0.001029,57.194773c0.005143,0.288026 -0.028803,0.576052 -0.093608,0.857906c-0.087436,-0.109038 -0.168701,-0.22322 -0.243793,-0.339459c-4.727742,-8.196398 -9.459598,-16.391768 -14.192484,-24.585081c-0.121382,-0.219106 -0.267453,-0.426896 -0.357975,-0.661431c-0.052462,-0.327115 -0.011315,-0.660403 -0.018516,-0.988547c0,-14.19557 0,-28.391139 0,-42.586709c-0.001029,-0.403236 -0.005143,-0.806473 0.007201,-1.209709m0.61617,0.684062c-0.01543,0.860992 -0.005143,1.721984 -0.008229,2.582976c0,13.510479 0,27.01993 0,40.52938c0.003086,0.272596 -0.018516,0.546221 0.018516,0.817788c0.057605,0.163558 0.150185,0.312714 0.235564,0.464956c4.407827,7.624461 8.805368,15.256123 13.212166,22.880584c0.040118,0.050405 0.121382,0.151214 0.1615,0.201618c0.016459,-0.818817 0.001029,-1.636605 0.007201,-2.454393c0,-17.898762 0,-35.798552 0,-53.697314c-0.005143,-0.270539 0.021602,-0.545192 -0.027774,-0.812645c-0.136812,-0.292141 -0.334316,-0.550335 -0.498902,-0.827046c-1.12433,-1.710669 -2.285692,-3.420309 -3.760797,-4.85221c-0.649087,-0.659374 -1.315662,-1.305375 -2.068644,-1.846453c-0.893909,-0.636743 -1.843367,-1.193251 -2.827799,-1.677752c-1.407213,-0.651145 -2.912149,-1.07084 -4.442802,-1.30949z" opacity="0.69" stroke-width="0.09375" fill="#221e1c"/>
   <path stroke="#221e1c" id="svg_7" d="m81.370949,21.700461c0.266424,-0.03086 0.533877,-0.058634 0.804416,-0.060691c2.81134,0 5.62268,0.001029 8.43402,-0.001029c0.293169,0.002057 0.598683,0.051433 0.852763,0.210876c0.298313,0.208819 0.467014,0.586339 0.428953,0.949457c-0.020573,0.282883 -0.18516,0.52359 -0.316829,0.765326c-7.629604,13.216281 -15.261266,26.429476 -22.888813,39.647814c-0.109038,0.137841 -0.153271,0.404265 -0.361061,0.414552c-0.040118,-0.370319 -0.016459,-0.743724 -0.018516,-1.115072c-0.003086,-9.224034 0.002057,-18.448069 -0.003086,-27.671074c0.018516,-0.22322 -0.067892,-0.506103 0.147099,-0.657317c1.023521,-0.896995 1.952405,-1.903029 2.753735,-3.0037c1.462761,-1.912287 2.702302,-3.986075 4.221639,-5.854129c0.46187,-0.566794 0.986489,-1.077012 1.506993,-1.589287c0.515361,-0.501988 1.131531,-0.887737 1.765188,-1.223082c0.817788,-0.462899 1.741529,-0.72418 2.673499,-0.812645m-1.886571,1.103757c-0.796186,0.393978 -1.584143,0.83939 -2.222944,1.466876c-1.765188,1.643806 -3.033532,3.718622 -4.406799,5.680285c-0.827046,1.14799 -1.646892,2.308323 -2.613836,3.345217c-0.425867,0.437182 -0.866135,0.860992 -1.307433,1.281716c-0.013373,8.351727 -0.002057,16.702425 -0.006172,25.053123c0.003086,0.594568 -0.004115,1.189136 0.011315,1.782676c0.240707,-0.145042 0.318886,-0.428953 0.459813,-0.655259c6.91674,-11.979826 13.834508,-23.959653 20.75022,-35.940508c0.283911,-0.503017 0.565765,-1.007063 0.882594,-1.490535c0.116239,-0.19236 0.263338,-0.389864 0.257166,-0.626457c0.014401,-0.213962 -0.173844,-0.397064 -0.374434,-0.429982c-0.304485,-0.054519 -0.615141,-0.020573 -0.921683,-0.025717c-2.468795,-0.003086 -4.936561,-0.002057 -7.405355,-0.001029c-1.054381,0.007201 -2.136536,0.100809 -3.102452,0.559593z" opacity="0.69" stroke-width="0.09375" fill="#221e1c"/>
   <path stroke="#221e1c" id="svg_8" d="m47.746993,26.597933c0.147099,0.054519 0.248937,0.172816 0.318886,0.309628c0.719036,1.270401 1.511108,2.497597 2.344326,3.694963c0.556507,0.83219 1.17062,1.628376 1.868055,2.348441c1.09347,1.230283 2.405018,2.290836 3.912011,2.970783c0.988547,0.482444 2.067616,0.75504 3.152857,0.904196c0.409408,0.048347 0.822932,0.037032 1.23234,0.087436c0.411466,0.051433 0.822932,-0.025717 1.234397,-0.044233c1.273487,-0.01543 2.51097,-0.379577 3.693934,-0.826018c0.411466,-0.150185 0.779728,-0.39295 1.181935,-0.563708c0.024688,0.507132 0.01543,1.014263 0.018516,1.521395c0.002057,9.738366 -0.001029,19.476733 0.001029,29.215099c-0.011315,0.194418 0.016459,0.409408 -0.09258,0.584281c-4.555955,7.888828 -9.109853,15.778684 -13.664779,23.667512c-0.180016,0.30037 -0.321972,0.629543 -0.562679,0.888766c-0.381635,0.37752 -1.052324,0.388835 -1.442188,0.018516c-0.183102,-0.208819 -0.283911,-0.471128 -0.433068,-0.701549c-0.837333,-1.369152 -1.643806,-2.755792 -2.437935,-4.149632c-0.103895,-0.188246 -0.236593,-0.363119 -0.306542,-0.566794c-0.039089,-0.235564 -0.021602,-0.475243 -0.022631,-0.711836c0.005143,-19.54874 -0.005143,-39.098508 0.004115,-58.647247m0.623371,2.139622c-0.01543,0.868193 -0.006172,1.737414 -0.009258,2.605607c0.001029,18.104495 -0.002057,36.208989 0.002057,54.313484c-0.006172,0.160472 0.094637,0.295227 0.164586,0.433068c0.795158,1.36298 1.583115,2.730075 2.370043,4.097171c0.196475,0.328144 0.343574,0.725208 0.716979,0.894938c0.172816,-0.079207 0.375463,-0.140927 0.46187,-0.328144c4.658821,-8.061643 9.312499,-16.127401 13.968235,-24.191102c0.09978,-0.274653 0.038061,-0.577081 0.052462,-0.862021c0,-9.742481 -0.004115,-19.484962 0.002057,-29.227443c-1.330063,0.550335 -2.739333,0.949457 -4.183578,1.011177c-0.981346,0.117268 -1.968864,0.021602 -2.945066,-0.093608c-0.85482,-0.1615 -1.71787,-0.329173 -2.519199,-0.67789c-1.37841,-0.533877 -2.616922,-1.385611 -3.689819,-2.392674c-1.544025,-1.410299 -2.742419,-3.140513 -3.874979,-4.884099c-0.163558,-0.23865 -0.273625,-0.525648 -0.51639,-0.698463z" opacity="0.69" stroke-width="0.09375" fill="#221e1c"/>
   <path stroke="#221e1c" id="svg_9" d="m11.555492,105.121035c0.003086,-0.468042 -0.008229,-0.936085 0.017487,-1.40207c0.316829,0.018516 0.629543,0.075093 0.943285,0.119325c-0.247908,0.23145 -0.156357,0.581195 -0.163558,0.881565c0.133726,0.068921 0.266424,0.140927 0.399122,0.21602c0.009258,-0.243793 0.019545,-0.48553 0.038061,-0.727266c0.20779,0.045261 0.414552,0.174873 0.632629,0.131669c0.279797,-0.149156 0.512275,-0.368262 0.758126,-0.564737c0.282883,0.20059 0.567823,0.413523 0.749896,0.71595c-0.462899,0.003086 -0.926827,0.025717 -1.381496,0.118296c-0.028803,0.37752 -0.020573,0.756068 -0.013373,1.134617c0.14607,0.006172 0.293169,0.005143 0.440268,-0.002057c0.174873,-0.133726 0.282883,-0.332259 0.41558,-0.503017c0.225278,0.182074 0.436154,0.381635 0.637772,0.591482c-0.13064,0.067892 -0.270539,0.113153 -0.417638,0.136812c-0.041147,1.015292 0.013373,2.032641 -0.025717,3.046904c-0.148128,0.302427 -0.529762,0.210876 -0.80133,0.212934c-0.01543,-1.075983 0.026745,-2.154023 -0.016459,-3.228978l-0.104924,-0.037032l-0.116239,0.047319c-0.054519,0.482444 0.040118,0.977231 -0.090522,1.451446c-0.090522,0.70875 -0.4701,1.405156 -1.09347,1.775475c0.010287,-0.088465 0.029831,-0.265395 0.040118,-0.353861c-0.28494,0.181045 -0.565765,0.391921 -0.923741,0.375463c-0.039089,-0.153271 -0.074064,-0.307571 -0.126526,-0.45467c-0.075093,-0.16973 -0.247908,-0.260252 -0.378549,-0.378549c0.18516,-0.019545 0.370319,-0.034975 0.555479,-0.048347c0.040118,-0.357975 0.029831,-0.719036 0.009258,-1.077012c-0.062749,0.033946 -0.187217,0.100809 -0.248937,0.133726l-0.09258,-0.038061c-0.121382,-0.233507 -0.314771,-0.498902 -0.257166,-0.769441c0.203676,-0.09978 0.422781,-0.163558 0.632629,-0.248937c-0.013373,-0.333287 -0.01543,-0.665546 -0.018516,-0.996776c-0.182074,-0.01543 -0.364147,-0.024688 -0.546221,-0.033946c-0.125497,0.709778 -0.318886,1.40927 -0.386778,2.129335c-0.053491,0.460842 0.313743,0.858935 0.22322,1.32492c-0.025717,0.422781 -0.618227,0.6316 -0.896995,0.312714c-0.070978,-0.434096 0.070978,-0.880537 -0.022631,-1.313605c-0.082293,-0.144013 -0.237621,-0.22322 -0.359004,-0.327115c0.091551,-0.014401 0.273625,-0.041147 0.365176,-0.055548c0.178988,-0.399122 0.383692,-0.794129 0.457756,-1.229254c-0.175902,0.016459 -0.390892,0.087436 -0.526676,-0.068921c-0.152242,-0.310657 -0.279797,-0.632629 -0.384721,-0.959744c0.226306,0.041147 0.463928,0.063777 0.669661,0.173844c0.180016,0.094637 0.266424,0.307571 0.449526,0.395007c0.163558,-0.271567 0.232478,-0.584281 0.311685,-0.884651c-0.21602,0.043204 -0.436154,0.029831 -0.64703,-0.028803c-0.089494,-0.349746 -0.267453,-0.667603 -0.378549,-1.010149c0.453641,0.029831 1.084212,0.224249 1.099642,0.773556c0.037032,0.044233 0.112124,0.132698 0.150185,0.17693c-0.014401,0.095666 -0.043204,0.286997 -0.057605,0.383692c0.159443,-0.006172 0.319915,-0.011315 0.480386,-0.016459m0.815731,0.275682c0.001029,0.235564 0.002057,0.4701 0.002057,0.706692c0.087436,-0.011315 0.264367,-0.034975 0.352832,-0.047319c-0.001029,-0.227335 0,-0.453641 0,-0.678919c-0.088465,0.005143 -0.265395,0.01543 -0.354889,0.019545m-0.001029,1.164448c-0.001029,0.727266 -0.002057,1.453503 0,2.180769c0.220134,-0.139898 0.209848,-0.432039 0.258195,-0.657317c0.117268,-0.614113 0.112124,-1.239541 0.097723,-1.860854c-0.118296,0.112124 -0.236593,0.224249 -0.355918,0.337402z" opacity="0.69" stroke-width="0.09375" fill="#221e1c"/>
   <path stroke="#221e1c" id="svg_10" d="m29.029415,103.790972c0.368262,0.007201 0.735495,0.031889 1.103757,0.04629c-0.162529,0.536963 -0.133726,1.109929 -0.198532,1.66335c0.36209,0.009258 0.728294,0.050405 1.088327,-0.008229c0.186188,-0.18516 0.338431,-0.401179 0.528734,-0.583253c0.289055,0.247908 0.656288,0.424838 0.848648,0.769441c-0.7931,0.033946 -1.588258,0.019545 -2.383416,0.028803c0.013373,0.209848 0.03086,0.427924 0.132698,0.619256c0.260252,0.551364 0.620285,1.081126 1.141818,1.414414c0.365176,0.247908 0.788986,0.391921 1.153133,0.643944c-0.18516,0.105952 -0.397064,0.186188 -0.536963,0.354889c-0.103895,0.142984 -0.156357,0.314771 -0.247908,0.467014c-0.233507,0 -0.384721,-0.227335 -0.549307,-0.364147c-0.643944,-0.626457 -0.939171,-1.498764 -1.174735,-2.342269c-0.117268,0.080236 -0.205733,0.191332 -0.245851,0.329173c-0.210876,0.562679 -0.526676,1.104786 -1.000891,1.48642c-0.504046,0.43101 -1.102728,0.737552 -1.728156,0.949457c-0.008229,-0.183102 0.170758,-0.259223 0.285969,-0.357975c0.427924,-0.312714 0.827046,-0.680976 1.105814,-1.136674c0.364147,-0.624399 0.567823,-1.333149 0.625428,-2.051157c-0.670689,-0.048347 -1.345493,0.03086 -2.013096,-0.044233c0.001029,-0.031889 0.001029,-0.093608 0.002057,-0.125497c0.667603,-0.079207 1.343436,0.004115 2.014125,-0.04629c0.033946,-0.570909 0.007201,-1.142846 0.048347,-1.712726z" opacity="0.69" stroke-width="0.09375" fill="#221e1c"/>
   <path stroke="#221e1c" id="svg_11" d="m37.827582,103.744682c0.433068,0.068921 0.945343,0.259223 1.060553,0.735495c0.080236,0.227335 -0.172816,0.376491 -0.274653,0.546221c0.079207,-0.01543 0.239679,-0.045261 0.318886,-0.060691c0.23865,-0.366205 0.343574,-0.798244 0.499931,-1.20148c0.34666,0.065835 0.672747,0.202647 1.000891,0.33123c-0.321972,0.354889 -0.771498,0.563708 -1.090384,0.923741c0.190303,0.008229 0.384721,0.032917 0.572966,-0.008229c0.18516,-0.106981 0.330201,-0.267453 0.49273,-0.403236c0.247908,0.23145 0.494788,0.467014 0.73961,0.704635c-0.326087,0.214991 -0.687148,0.368262 -1.045123,0.522562c0.007201,0.079207 0.022631,0.236593 0.029831,0.314771c-0.43101,0.248937 -0.991633,0.285969 -1.318748,0.69332c0.002057,0.076121 0.005143,0.228364 0.007201,0.303456c0.349746,0.013373 0.700521,0.012344 1.051295,-0.004115c0.137841,-0.166644 0.240707,-0.385749 0.436154,-0.489644c0.321972,0.121382 0.561651,0.398093 0.815731,0.623371c-0.163558,0.06172 -0.330201,0.126526 -0.50816,0.11521c-0.592511,-0.006172 -1.18605,0.004115 -1.777532,-0.014401c-0.044233,0.373405 -0.008229,0.748868 -0.03086,1.12433c-0.013373,0.272596 -0.206762,0.521533 -0.453641,0.6316c-0.225278,0.106981 -0.481415,0.100809 -0.72418,0.121382c-0.076121,-0.221163 -0.119325,-0.478329 -0.303456,-0.638801c-0.162529,-0.100809 -0.352832,-0.136812 -0.529762,-0.199561c0.028803,-0.023659 0.08435,-0.069949 0.112124,-0.093608c0.323001,-0.03086 0.648059,0.002057 0.972088,-0.010287c0,-0.298313 0.002057,-0.595597 0.01543,-0.892881c-0.722122,-0.100809 -1.47099,0.060691 -2.182826,-0.088465c-0.003086,-0.034975 -0.010287,-0.104924 -0.013373,-0.139898c0.718008,-0.093608 1.44836,-0.020573 2.172539,-0.038061c0.008229,-0.183102 0.017487,-0.367233 0.027774,-0.548278c0.198532,-0.006172 0.403236,0.024688 0.599711,-0.021602c0.165615,-0.156357 0.272596,-0.361061 0.387807,-0.553421c-0.72418,-0.028803 -1.449388,-0.001029 -2.173568,-0.019545c0.001029,-0.042175 0.003086,-0.128583 0.004115,-0.170758c0.683033,-0.021602 1.366066,-0.002057 2.0491,-0.008229c0.28494,0.026745 0.413523,-0.280825 0.640858,-0.388835c0.14607,0 0.258195,0.128583 0.391921,0.180016c0.055548,-0.114182 0.093608,-0.233507 0.114182,-0.359004c-1.109929,-0.019545 -2.219858,-0.017487 -3.329787,-0.006172c-0.013373,0.279797 -0.006172,0.608969 -0.240707,0.80853c-0.128583,0.079207 -0.30037,0.173844 -0.451584,0.10801c-0.18516,-0.041147 -0.265395,-0.22322 -0.369291,-0.356947c0.125497,-0.227335 0.316829,-0.40015 0.499931,-0.578109c0.184131,-0.160472 0.195446,-0.420724 0.260252,-0.638801c0.10801,0.11521 0.195446,0.249965 0.240707,0.404265c0.132698,0.010287 0.265395,0.020573 0.399122,0.03086c-0.067892,-0.428953 -0.241736,-0.826018 -0.444383,-1.205595c0.407351,0.008229 0.872307,0.129612 1.116101,0.482444c0.144013,0.226306 0.021602,0.494788 -0.062749,0.721094c0.267453,-0.003086 0.535934,-0.004115 0.803387,-0.020573c-0.104924,-0.075093 -0.208819,-0.149156 -0.311685,-0.221163c-0.010287,-0.359004 -0.11521,-0.700521 -0.196475,-1.046152z" opacity="0.69" stroke-width="0.09375" fill="#221e1c"/>
   <path stroke="#221e1c" id="svg_12" d="m46.589746,103.858863c0.055548,-0.174873 0.275682,-0.09978 0.40838,-0.096694c0.252023,0.027774 0.505074,0.054519 0.758126,0.085379c-0.082293,0.072007 -0.163558,0.144013 -0.244822,0.218077c-0.013373,0.34666 -0.01543,0.695377 0,1.043066c0.335345,0.020573 0.671718,0.019545 1.008091,-0.005143c0.13887,-0.190303 0.282883,-0.375463 0.425867,-0.561651c0.310657,0.187217 0.586339,0.424838 0.85482,0.668632c-0.100809,0.065835 -0.20059,0.1543 -0.33123,0.136812c-0.653202,0.016459 -1.308461,-0.031889 -1.960634,0.021602c-0.009258,0.440268 -0.010287,0.882594 -0.003086,1.323891c0.199561,0.005143 0.399122,0.008229 0.598683,0.008229c0.136812,-0.151214 0.276711,-0.297284 0.419695,-0.440268c0.273625,0.20779 0.561651,0.40015 0.807502,0.643944c-0.050405,0.041147 -0.152242,0.125497 -0.203676,0.167672c-0.073035,0.628514 0.012344,1.268343 -0.037032,1.900972c-0.208819,0.252023 -0.607941,0.202647 -0.902139,0.258195c-0.024688,-0.166644 0.033946,-0.364147 -0.074064,-0.506103c-0.705664,-0.040118 -1.414414,-0.01543 -2.120077,-0.009258c-0.002057,0.070978 -0.006172,0.214991 -0.008229,0.285969c-0.268481,0.204704 -0.601769,0.279797 -0.932999,0.235564c0.011315,-0.940199 -0.018516,-1.880399 0.012344,-2.819569c0.224249,-0.051433 0.428953,0.101838 0.633657,0.170758c0.26951,0.134755 0.573995,0.119325 0.866135,0.125497c0.018516,-0.452612 0.009258,-0.905225 0.012344,-1.356808c-0.705664,-0.028803 -1.412356,-0.008229 -2.11802,-0.014401c-0.002057,-0.053491 -0.007201,-0.159443 -0.009258,-0.212934c0.707721,-0.020573 1.416471,0.009258 2.125221,-0.021602c0.010287,-0.416609 -0.021602,-0.835276 0.014401,-1.249827m-0.55445,3.104509c-0.031889,0.498902 -0.018516,0.999862 -0.01543,1.500821c0.691263,0.009258 1.382525,0.012344 2.073788,-0.003086c0.003086,-0.501988 0.013373,-1.003977 -0.005143,-1.505965c-0.685091,0.012344 -1.369152,-0.001029 -2.053214,0.008229z" opacity="0.69" stroke-width="0.09375" fill="#221e1c"/>
   <path stroke="#221e1c" id="svg_13" d="m63.850736,103.728223c0.389864,-0.048347 0.845562,0.004115 1.096556,0.344603c0.029831,0.168701 -0.04629,0.332259 -0.087436,0.494788c0.286997,-0.008229 0.576052,0.008229 0.864078,-0.014401c0.19236,-0.152242 0.323001,-0.367233 0.490673,-0.545192c0.241736,0.237621 0.588396,0.391921 0.728294,0.71595c-0.37752,0.021602 -0.756068,0.007201 -1.13256,0.023659c0.114182,0.112124 0.243793,0.217048 0.373405,0.317857c-0.370319,0.252023 -0.791043,0.480386 -1.038951,0.867164c0.259223,0.014401 0.520504,0.01543 0.781785,0.01543c0.165615,-0.171787 0.271567,-0.436154 0.495816,-0.532848c0.292141,0.160472 0.525648,0.407351 0.769441,0.6316c-0.368262,0.157386 -0.779728,0.062749 -1.167534,0.088465c-1.412356,-0.019545 -2.82677,0.034975 -4.238098,-0.028803c0.020573,-0.034975 0.060691,-0.104924 0.080236,-0.13887c0.491702,-0.052462 0.988547,-0.009258 1.483334,-0.021602c-0.078178,-0.401179 -0.148128,-0.806473 -0.309628,-1.182964c-0.340488,-0.021602 -0.682005,-0.016459 -1.022492,-0.037032l0.082293,-0.14607c0.690234,-0.056577 1.384582,0.002057 2.076874,-0.024688c-0.082293,-0.286997 -0.195446,-0.561651 -0.326087,-0.827046m-0.20059,1.077012c0.156357,0.141956 0.333287,0.270539 0.45467,0.448498c0.098752,0.219106 0.008229,0.460842 -0.089494,0.664517c0.246879,-0.012344 0.493759,-0.016459 0.741667,-0.018516c0.125497,-0.365176 0.249965,-0.733438 0.303456,-1.11713c-0.4701,-0.01543 -0.941228,-0.005143 -1.410299,0.022631z" opacity="0.69" stroke-width="0.09375" fill="#221e1c"/>
   <path stroke="#221e1c" id="svg_14" d="m72.611871,104.299132c0.697435,-0.173844 1.416471,-0.299341 2.07173,-0.604855c0.308599,0.226306 0.570909,0.509189 0.800301,0.815731c-0.389864,0.012344 -0.778699,-0.002057 -1.167534,0.012344c-0.674804,0.013373 -1.34755,0.118296 -2.023383,0.069949c-0.119325,0.529762 -0.221163,1.064668 -0.318886,1.599573c0.325058,0.004115 0.650116,0.004115 0.977231,-0.001029c0.005143,-0.469071 0.007201,-0.937113 -0.001029,-1.405156c0.348717,-0.016459 0.69332,0.040118 1.036894,0.094637c-0.229392,0.402208 -0.097723,0.883623 -0.121382,1.323891c0.25408,0 0.509189,-0.002057 0.764298,-0.002057c0.144013,-0.186188 0.290083,-0.370319 0.438211,-0.551364c0.30037,0.204704 0.613084,0.405294 0.83939,0.698463c-0.16973,0.054519 -0.343574,0.102866 -0.521533,0.094637c-0.510218,-0.003086 -1.019406,-0.005143 -1.528595,0c-0.001029,0.683033 0.004115,1.366066 0.002057,2.0491c0.022631,0.323001 -0.218077,0.636743 -0.53182,0.70875c-0.178988,0.039089 -0.360033,0.058634 -0.537992,0.08435c-0.072007,-0.182074 -0.118296,-0.37752 -0.235564,-0.535934c-0.13887,-0.137841 -0.372377,-0.14607 -0.4773,-0.321972c0.291112,-0.012344 0.582224,-0.003086 0.874365,-0.010287c0.023659,-0.659374 0.008229,-1.317719 0.008229,-1.976064c-0.356947,0.003086 -0.71595,-0.024688 -1.07084,0.020573c-0.078178,0.081264 -0.150185,0.167672 -0.217048,0.259223c-0.242765,-0.101838 -0.4773,-0.219106 -0.710807,-0.337402c0.292141,-0.703606 0.361061,-1.468933 0.506103,-2.209571c0.383692,0.022631 0.758126,0.23145 1.144904,0.124468z" opacity="0.69" stroke-width="0.09375" fill="#221e1c"/>
   <path stroke="#221e1c" id="svg_15" d="m79.580044,105.387459c0.06172,-0.559593 -0.065835,-1.133588 0.076121,-1.681866c0.299341,0.043204 0.599711,0.091551 0.90111,0.131669c-0.280825,0.40838 -0.114182,0.93197 -0.149156,1.39384c0.112124,-0.079207 0.224249,-0.159443 0.333287,-0.241736c0.04629,0.020573 0.139898,0.06172 0.186188,0.082293c0.241736,-0.082293 0.498902,-0.098752 0.754011,-0.097723c0.012344,-0.393978 -0.020573,-0.788986 0.023659,-1.178849l0.049376,-0.052462c0.339459,-0.022631 0.672747,0.074064 1.011177,0.095666c-0.259223,0.327115 -0.205733,0.76224 -0.20059,1.153133c0.083322,-0.004115 0.250994,-0.011315 0.334316,-0.01543c0.197504,-0.082293 0.309628,-0.297284 0.511246,-0.378549c0.252023,0.160472 0.457756,0.379577 0.663489,0.594568c-0.085379,0.062749 -0.16973,0.126526 -0.252023,0.19236c0.001029,0.08435 0.003086,0.25408 0.005143,0.339459c0.385749,0.264367 0.88568,0.594568 0.855849,1.127416c0.021602,0.197504 -0.145042,0.329173 -0.244822,0.475243c-0.22322,-0.041147 -0.442326,-0.090522 -0.66246,-0.132698c-0.060691,0.529762 0.025717,1.110958 -0.28494,1.580029c-0.178988,0.353861 -0.611027,0.489644 -0.983403,0.450555c-0.028803,-0.181045 -0.023659,-0.372377 -0.116239,-0.532848c-0.131669,-0.14607 -0.317857,-0.228364 -0.455698,-0.367233c0.235564,-0.032917 0.501988,0.053491 0.719036,-0.06172c0.198532,-0.210876 0.217048,-0.527705 0.243793,-0.800301c0.027774,-0.745782 0.070978,-1.490535 0.07715,-2.236317c-0.121382,-0.004115 -0.242765,-0.006172 -0.36209,-0.008229c-0.056577,0.440268 -0.037032,0.889795 -0.140927,1.323891c-0.13064,0.58531 -0.278768,1.200451 -0.683033,1.664379c-0.343574,0.419695 -0.728294,0.858935 -1.266286,1.019406c0.09258,-0.321972 0.340488,-0.556507 0.50096,-0.840419c0.20779,-0.376491 0.381635,-0.780756 0.422781,-1.211767c-0.156357,0.111096 -0.295227,0.296255 -0.507132,0.282883c-0.202647,0.010287 -0.347689,-0.150185 -0.49273,-0.263338c0.014401,0.583253 -0.008229,1.168563 0.016459,1.752844c-0.204704,0.271567 -0.540049,0.313743 -0.856877,0.307571c-0.03086,-1.217939 0.001029,-2.435877 -0.016459,-3.653816c-0.159443,-0.011315 -0.316829,-0.019545 -0.474214,-0.026745c0.008229,-0.052462 0.022631,-0.158414 0.03086,-0.211905c0.142984,0.008229 0.286997,0.017487 0.433068,0.026745m1.673637,-0.177959c0.016459,0.088465 0.049376,0.266424 0.065835,0.355918c-0.291112,0.011315 -0.581195,0.025717 -0.87025,0.044233c0.001029,0.44644 0,0.892881 -0.004115,1.34035c0.354889,-0.312714 0.639829,-0.711836 0.700521,-1.191193c0.342545,0.137841 0.307571,0.606912 0.368262,0.914483c0.026745,0.019545 0.080236,0.057605 0.10801,0.076121c-0.013373,-0.50816 0.022631,-1.014263 0.017487,-1.521395c-0.129612,-0.008229 -0.258195,-0.014401 -0.385749,-0.018516z" opacity="0.69" stroke-width="0.09375" fill="#221e1c"/>
   <path stroke="#221e1c" id="svg_16" d="m88.527368,105.793781c0.671718,-0.564737 1.226168,-1.276573 1.541968,-2.100533c0.376491,0.085379 0.745782,0.20059 1.127416,0.270539c-0.054519,0.096694 -0.266424,0.234535 -0.114182,0.34666c0.633657,0.607941 1.503907,0.845562 2.324782,1.083184c-0.260252,0.242765 -0.563708,0.469071 -0.653202,0.836304c-0.206762,-0.095666 -0.40015,-0.213962 -0.606912,-0.305513c-0.203676,0.042175 -0.40015,0.132698 -0.611027,0.124468c-0.618227,-0.002057 -1.235426,-0.010287 -1.852625,-0.001029c-0.222192,0.01543 -0.429982,-0.057605 -0.637772,-0.11521c-0.42381,0.139898 -0.787957,0.438211 -1.239541,0.50816c0.219106,-0.23865 0.473186,-0.440268 0.721094,-0.64703m2.242489,-1.446302c-0.390892,0.601769 -0.979289,1.035865 -1.539911,1.468933c0.568851,0.003086 1.136674,-0.002057 1.705526,0.002057c0.111096,-0.141956 0.217048,-0.288026 0.321972,-0.434096c0.14607,0.034975 0.28494,0.094637 0.421752,0.163558c-0.379577,-0.339459 -0.651145,-0.768412 -0.909339,-1.200451z" opacity="0.69" stroke-width="0.09375" fill="#221e1c"/>
   <path stroke="#221e1c" id="svg_17" d="m18.68105,103.868121c0.465985,0.018516 1.032779,0.094637 1.237483,0.58531c0.830132,-0.050405 1.661293,-0.009258 2.492454,-0.021602c0.159443,-0.199561 0.324029,-0.395007 0.501988,-0.577081c0.244822,0.208819 0.491702,0.416609 0.736524,0.626457c-0.116239,0.180016 -0.344603,0.119325 -0.520504,0.136812c-0.332259,-0.004115 -0.663489,0 -0.994719,0.018516c-0.037032,1.328006 0.007201,2.659098 -0.023659,3.988132c0.139898,0.007201 0.280825,0.013373 0.421752,0.020573c0.164586,-0.178988 0.267453,-0.456727 0.494788,-0.55445c0.310657,0.145042 0.529762,0.443354 0.812645,0.638801c-0.311685,0.180016 -0.678919,0.098752 -1.019406,0.11521c-1.042037,-0.018516 -2.083046,0.025717 -3.124054,-0.018516c-0.106981,0.173844 -0.241736,0.379577 -0.468042,0.396036c-0.194418,0.038061 -0.395007,-0.045261 -0.499931,-0.211905c-0.036003,-0.409408 0.100809,-0.82396 0.002057,-1.228225c-0.082293,-0.160472 -0.248937,-0.247908 -0.368262,-0.373405c0.137841,-0.026745 0.274653,-0.058634 0.410437,-0.095666c0.303456,-0.425867 0.504046,-0.914483 0.77047,-1.361952c0.245851,-0.389864 0.399122,-0.833218 0.690234,-1.193251c-0.018516,0.186188 -0.027774,0.37752 -0.093608,0.556507c-0.198532,0.553421 -0.380606,1.113015 -0.558565,1.674666c-0.076121,0.280825 -0.18516,0.591482 -0.060691,0.878479c0.09978,0.255109 0.1615,0.533877 0.293169,0.773556c0.462899,0.019545 0.925798,-0.006172 1.388697,0.001029c0.004115,-1.336235 0.007201,-2.67247 -0.001029,-4.008705c-0.422781,0.008229 -0.843505,-0.018516 -1.265257,-0.014401c-0.12344,0.12344 -0.19236,0.354889 -0.40838,0.33123c-0.150185,0.001029 -0.355918,0.018516 -0.410437,-0.162529c-0.141956,-0.308599 -0.288026,-0.615141 -0.436154,-0.919626z" opacity="0.69" stroke-width="0.09375" fill="#221e1c"/>
   <path stroke="#221e1c" id="svg_18" d="m54.779972,103.828003c0.304485,-0.003086 0.608969,0.027774 0.904196,0.109038c-0.086408,0.243793 -0.126526,0.504046 -0.078178,0.761212c0.049376,0.022631 0.148128,0.066863 0.197504,0.089494c0.028803,-0.302427 -0.037032,-0.623371 0.066863,-0.909339c0.261281,-0.127554 0.582224,0.017487 0.863049,0.044233c-0.133726,0.266424 -0.127554,0.564737 -0.095666,0.853792c0.074064,-0.003086 0.22322,-0.008229 0.298313,-0.011315c0.111096,-0.133726 0.208819,-0.28494 0.353861,-0.383692c0.306542,0.083322 0.534906,0.33123 0.798244,0.499931c-0.047319,0.050405 -0.142984,0.151214 -0.190303,0.201618c0.004115,0.664517 0.003086,1.329034 0.001029,1.99458c0.342545,0.012344 0.60074,0.33123 0.707721,0.632629c-1.239541,0.032917 -2.481139,0.010287 -3.721708,0.016459c0.105952,0.329173 0.553421,0.307571 0.763269,0.555479c-0.109038,0.117268 -0.299341,0.116239 -0.435125,0.201618c-0.659374,0.386778 -1.391783,0.672747 -2.158138,0.740638c0.204704,-0.264367 0.533877,-0.372377 0.780756,-0.587367c0.306542,-0.258195 0.643944,-0.518447 0.799272,-0.90111c-0.566794,-0.044233 -1.140789,0.053491 -1.70244,-0.055548c0.181045,-0.210876 0.469071,-0.13064 0.70875,-0.151214c0.005143,-1.013234 0.004115,-2.02544 0.001029,-3.037646c0.389864,0.052462 0.733438,0.290083 1.134617,0.282883c-0.003086,-0.316829 -0.004115,-0.6316 0.003086,-0.946371m0.798244,1.267315c0.005143,0.332259 0.007201,0.665546 0.007201,0.998833c0.057605,0.003086 0.172816,0.009258 0.230421,0.013373c0.005143,-0.391921 0.020573,-0.784871 -0.024688,-1.173706c-0.072007,0.052462 -0.142984,0.105952 -0.212934,0.1615m-1.050266,-0.06172c-0.073035,0.355918 -0.037032,0.722122 -0.007201,1.082155c0.059663,-0.014401 0.180016,-0.043204 0.240707,-0.057605c-0.005143,-0.363119 -0.004115,-0.725208 -0.018516,-1.087298c-0.053491,0.01543 -0.1615,0.047319 -0.214991,0.062749m2.170482,0.006172c-0.006172,0.337402 -0.009258,0.675833 -0.021602,1.014263c0.097723,0 0.194418,0.001029 0.293169,0.003086c-0.004115,-0.349746 -0.006172,-0.698463 -0.019545,-1.046152c-0.062749,0.007201 -0.189274,0.021602 -0.252023,0.028803m-2.194141,1.325948c-0.032917,0.372377 -0.03086,0.747839 -0.003086,1.121244c0.064806,0.009258 0.19236,0.027774 0.257166,0.037032c0.002057,-0.403236 0.003086,-0.805444 0,-1.206623c-0.063777,0.012344 -0.190303,0.036003 -0.25408,0.048347m1.079069,0.007201c0.005143,0.373405 0.004115,0.747839 0.008229,1.123302c0.055548,0.007201 0.165615,0.022631 0.221163,0.029831c0.010287,-0.398093 0.007201,-0.795158 0.005143,-1.192222c-0.058634,0.009258 -0.175902,0.028803 -0.234535,0.039089m1.111986,-0.010287c0.001029,0.363119 -0.002057,0.726237 -0.004115,1.090384c0.067892,0.002057 0.202647,0.007201 0.270539,0.010287c0.006172,-0.371348 0.001029,-0.742696 -0.013373,-1.111986c-0.062749,0.003086 -0.190303,0.008229 -0.253051,0.011315z" opacity="0.69" stroke-width="0.09375" fill="#221e1c"/>
   <path stroke="#221e1c" id="svg_19" d="m18.202721,105.160124c0.316829,0.026745 0.667603,0.025717 0.93197,0.23145c0.181045,0.131669 0.247908,0.355918 0.340488,0.550335c-0.151214,0.098752 -0.292141,0.227335 -0.4701,0.275682c-0.147099,-0.008229 -0.325058,-0.055548 -0.374434,-0.211905c-0.140927,-0.283911 -0.312714,-0.550335 -0.427924,-0.845562z" opacity="0.69" stroke-width="0.09375" fill="#221e1c"/>
   <path stroke="#221e1c" id="svg_20" d="m65.247662,106.676375c0.157386,-0.126526 0.292141,-0.277739 0.442326,-0.412494c0.255109,0.227335 0.563708,0.398093 0.779728,0.669661c-0.055548,0.024688 -0.165615,0.076121 -0.221163,0.100809c0,0.48553 -0.003086,0.972088 0.003086,1.458646c-0.011315,0.1615 0.021602,0.337402 -0.048347,0.491702c-0.246879,0.194418 -0.568851,0.245851 -0.874365,0.241736c-0.012344,-0.13887 -0.022631,-0.276711 -0.032917,-0.412494c-0.53902,-0.007201 -1.077012,-0.008229 -1.615003,-0.001029c-0.053491,0.094637 -0.106981,0.191332 -0.158414,0.289055c-0.242765,0.11521 -0.510218,0.150185 -0.776642,0.145042c-0.01543,-0.950486 -0.002057,-1.900972 -0.006172,-2.850429c0.424838,0.047319 0.786928,0.352832 1.227197,0.304485c0.425867,-0.017487 0.857906,0.032917 1.280687,-0.024688m-1.583115,0.248937c-0.008229,0.224249 -0.012344,0.448498 -0.007201,0.674804c0.536963,-0.004115 1.077012,0.032917 1.612946,-0.028803c-0.003086,-0.205733 -0.004115,-0.411466 0.001029,-0.615141c-0.532848,-0.069949 -1.071868,-0.018516 -1.606774,-0.03086m0.007201,0.9474c-0.003086,0.23145 0,0.463928 0.007201,0.697435c0.512275,-0.004115 1.025578,-0.009258 1.537853,0.004115c0.034975,-0.235564 0.03086,-0.474214 0.011315,-0.70875c-0.519476,0 -1.037922,-0.008229 -1.556369,0.007201z" opacity="0.69" stroke-width="0.09375" fill="#221e1c"/>
   <path stroke="#221e1c" id="svg_21" d="m91.909616,106.809073c0.151214,-0.178988 0.303456,-0.357975 0.457756,-0.535934c0.26951,0.186188 0.543135,0.374434 0.775613,0.609998l-0.040118,0.07715c-0.23865,0.076121 -0.497874,0.027774 -0.743724,0.041147c-0.611027,0.009258 -1.222053,-0.024688 -1.831023,0.020573c0.140927,0.163558 0.310657,0.298313 0.478329,0.436154c-0.361061,0.188246 -0.69332,0.427924 -1.068782,0.587367c-0.172816,0.068921 -0.336373,0.159443 -0.475243,0.283911c0.74681,0.018516 1.494649,0.019545 2.242489,-0.005143c-0.162529,-0.288026 -0.375463,-0.540049 -0.570909,-0.802358c0.665546,0.004115 1.352694,0.343574 1.708612,0.918597c0.110067,0.208819 0.152242,0.52359 -0.052462,0.690234c-0.126526,0.144013 -0.354889,0.125497 -0.515361,0.063777c-0.195446,-0.1615 -0.217048,-0.4701 -0.43101,-0.606912c-0.458784,0.016459 -0.896995,0.177959 -1.348579,0.247908c-0.584281,0.13064 -1.196337,0.156357 -1.753873,0.389864c-0.083322,-0.297284 -0.317857,-0.597654 -0.252023,-0.909339c0.268481,-0.171787 0.577081,-0.288026 0.800301,-0.526676c0.228364,-0.237621 0.522562,-0.452612 0.603826,-0.788986c-0.579138,-0.006172 -1.157248,0.008229 -1.735357,-0.009258l-0.004115,-0.17693c1.251885,-0.014401 2.503769,0.002057 3.755654,-0.005143z" opacity="0.69" stroke-width="0.09375" fill="#221e1c"/>
   <path stroke="#221e1c" id="svg_22" d="m71.713847,106.74221c0.351803,0.105952 0.701549,0.243793 0.989575,0.478329c-0.149156,0.091551 -0.286997,0.202647 -0.39295,0.343574c-0.4773,0.609998 -1.12433,1.095528 -1.867026,1.331092c0.113153,-0.334316 0.407351,-0.550335 0.597654,-0.835276c0.294198,-0.40015 0.509189,-0.850706 0.672747,-1.317719z" opacity="0.69" stroke-width="0.09375" fill="#221e1c"/>
   <path stroke="#221e1c" id="svg_23" d="m74.042743,106.765869c0.671718,0.110067 1.357837,0.43924 1.731242,1.028664c0.168701,0.271567 0.244822,0.734466 -0.078178,0.923741c-0.177959,0.1543 -0.399122,0.007201 -0.584281,-0.04629c-0.252023,-0.690234 -0.66246,-1.300232 -1.068782,-1.906115z" opacity="0.69" stroke-width="0.09375" fill="#221e1c"/>
   <path stroke="#221e1c" id="svg_24" d="m56.127523,108.04347c0.144013,-0.029831 0.289055,-0.07715 0.43924,-0.054519c0.547249,0.059663 1.125359,0.127554 1.586201,0.457756c0.167672,0.117268 0.292141,0.345631 0.188246,0.547249c-0.089494,0.270539 -0.420724,0.264367 -0.650116,0.232478c-0.198532,-0.063777 -0.302427,-0.258195 -0.438211,-0.397064c-0.301399,-0.355918 -0.738581,-0.544164 -1.125359,-0.7859z" opacity="0.69" stroke-width="0.09375" fill="#221e1c"/>
   <path stroke="#221e1c" id="svg_25" d="m16.885002,112.960487c0.220134,-0.064806 0.456727,0.278768 0.239679,0.434096c-0.097723,0.144013 -0.320943,0.089494 -0.42381,-0.020573c-0.104924,-0.151214 -0.006172,-0.401179 0.184131,-0.413523z" opacity="0.69" stroke-width="0.09375" fill="#221e1c"/>
   <path stroke="#221e1c" id="svg_26" d="m42.798089,112.941971c0.10801,0.023659 0.262309,0.051433 0.292141,0.181045c0.103895,0.197504 -0.12344,0.396036 -0.3158,0.361061c-0.110067,-0.075093 -0.210876,-0.1615 -0.301399,-0.257166c0.101838,-0.100809 0.189274,-0.226306 0.325058,-0.28494z" opacity="0.69" stroke-width="0.09375" fill="#221e1c"/>
   <path stroke="#221e1c" id="svg_27" d="m51.258854,113.083926c0.246879,-0.058634 0.496845,-0.10801 0.747839,-0.150185c0.013373,0.790014 0.005143,1.580029 0.002057,2.371072c0.066863,0.081264 0.135784,0.166644 0.204704,0.252023c-0.294198,0.018516 -0.589425,0.012344 -0.883623,-0.001029c0.070978,-0.116239 0.182074,-0.225278 0.156357,-0.372377c-0.003086,-0.6316 0.01543,-1.265257 -0.010287,-1.896857c-0.054519,-0.050405 -0.162529,-0.151214 -0.217048,-0.202647z" opacity="0.69" stroke-width="0.09375" fill="#221e1c"/>
   <path stroke="#221e1c" id="svg_28" d="m58.974866,113.228968c0.017487,-0.18516 0.21602,-0.339459 0.393978,-0.253051c0.085379,0.074064 0.164586,0.157386 0.237621,0.247908c-0.079207,0.090522 -0.164586,0.175902 -0.256137,0.25408c-0.175902,0.033946 -0.342545,-0.074064 -0.375463,-0.248937z" opacity="0.69" stroke-width="0.09375" fill="#221e1c"/>
   <path stroke="#221e1c" id="svg_29" d="m86.639768,113.228968c0.040118,-0.172816 0.220134,-0.341517 0.404265,-0.256137c0.085379,0.07715 0.168701,0.160472 0.247908,0.248937c-0.08435,0.091551 -0.175902,0.175902 -0.273625,0.252023c-0.17693,0.037032 -0.328144,-0.086408 -0.378549,-0.244822z" opacity="0.69" stroke-width="0.09375" fill="#221e1c"/>
   <path stroke="#221e1c" id="svg_30" d="m11.771511,113.076726c0.233507,-0.048347 0.465985,-0.097723 0.699492,-0.14607c0.127554,0.302427 0.080236,0.6316 0.062749,0.950486c0.209848,0.001029 0.403236,-0.105952 0.613084,-0.104924c0.256137,0.003086 0.432039,0.249965 0.4773,0.481415c0.054519,0.432039 -0.06172,0.884651 0.10801,1.301261c-0.249965,0.005143 -0.498902,0.008229 -0.748868,0.009258c0.093608,-0.464956 0.110067,-0.950486 0.034975,-1.416471c-0.08435,-0.17693 -0.317857,-0.048347 -0.45467,-0.014401c0.003086,0.4773 -0.031889,0.956658 0.044233,1.431901c-0.264367,0 -0.528734,-0.004115 -0.792072,-0.019545c0.053491,-0.080236 0.105952,-0.159443 0.159443,-0.237621c-0.020573,-0.673775 0.020573,-1.348579 -0.017487,-2.020297c-0.04629,-0.053491 -0.13887,-0.1615 -0.186188,-0.214991z" opacity="0.69" stroke-width="0.09375" fill="#221e1c"/>
   <path stroke="#221e1c" id="svg_31" d="m18.076196,113.224853c-0.006172,-0.183102 0.180016,-0.274653 0.337402,-0.278768c0.105952,0.087436 0.208819,0.181045 0.307571,0.280825c-0.097723,0.091551 -0.20059,0.177959 -0.308599,0.260252c-0.141956,-0.012344 -0.353861,-0.085379 -0.336373,-0.262309z" opacity="0.69" stroke-width="0.09375" fill="#221e1c"/>
   <path stroke="#221e1c" id="svg_32" d="m33.120413,113.430586c-0.225278,-0.103895 -0.134755,-0.428953 0.089494,-0.467014c0.20059,-0.070978 0.292141,0.1543 0.405294,0.268481c-0.126526,0.129612 -0.293169,0.349746 -0.494788,0.198532z" opacity="0.69" stroke-width="0.09375" fill="#221e1c"/>
   <path stroke="#221e1c" id="svg_33" d="m64.564629,113.077754c0.245851,-0.050405 0.49273,-0.12344 0.74681,-0.117268c0.020573,0.041147 0.060691,0.122411 0.080236,0.163558c-0.049376,0.4773 -0.039089,0.957687 -0.036003,1.438073c0.007201,0.332259 -0.052462,0.69332 0.129612,0.994719c-0.262309,0.008229 -0.52359,0.012344 -0.783842,0.010287c0.122411,-0.357975 0.078178,-0.738581 0.083322,-1.1089c0,-0.398093 0.004115,-0.797215 -0.006172,-1.194279c-0.073035,-0.062749 -0.144013,-0.124468 -0.213962,-0.186188z" opacity="0.69" stroke-width="0.09375" fill="#221e1c"/>
   <path stroke="#221e1c" id="svg_34" d="m75.199991,113.137417c0.112124,-0.243793 0.460842,-0.233507 0.572966,0.006172c0.063777,0.203676 -0.157386,0.278768 -0.282883,0.37752c-0.134755,-0.101838 -0.371348,-0.16973 -0.290083,-0.383692z" opacity="0.69" stroke-width="0.09375" fill="#221e1c"/>
   <path stroke="#221e1c" id="svg_35" d="m9.537252,113.206337c0.551364,-0.04629 1.116101,-0.056577 1.666436,0.004115l0.049376,0.105952c-0.338431,0.729323 -0.876422,1.353722 -1.17062,2.103619c0.267453,-0.001029 0.534906,-0.005143 0.802358,-0.009258c0.09258,-0.211905 0.070978,-0.584281 0.391921,-0.545192c0.006172,0.230421 0.005143,0.462899 -0.003086,0.695377c-0.640858,-0.028803 -1.286859,0.053491 -1.923603,-0.031889c0.348717,-0.694349 0.807502,-1.326977 1.167534,-2.014125c0.005143,-0.058634 0.01543,-0.173844 0.020573,-0.232478c-0.252023,0.008229 -0.521533,-0.01543 -0.738581,0.137841c-0.056577,0.153271 -0.101838,0.624399 -0.354889,0.436154c-0.028803,-0.220134 -0.003086,-0.450555 0.09258,-0.650116z" opacity="0.69" stroke-width="0.09375" fill="#221e1c"/>
   <path stroke="#221e1c" id="svg_36" d="m27.442186,113.184735c0.375463,-0.009258 0.750925,-0.006172 1.126388,0.008229c-0.078178,0.087436 -0.239679,0.132698 -0.246879,0.268481c-0.041147,0.52359 -0.042175,1.053352 0.010287,1.575914c0.10801,0.353861 0.638801,0.406322 0.871279,0.149156c0.134755,-0.177959 0.132698,-0.413523 0.141956,-0.624399c0.002057,-0.372377 0,-0.744753 -0.017487,-1.115072c-0.089494,-0.086408 -0.175902,-0.172816 -0.257166,-0.263338c0.249965,-0.007201 0.499931,-0.005143 0.749896,-0.007201c-0.512275,0.53182 -0.100809,1.33212 -0.376491,1.95652c-0.229392,0.666575 -1.306404,0.694349 -1.621175,0.087436c-0.13064,-0.194418 -0.114182,-0.437182 -0.121382,-0.658345c-0.001029,-0.376491 0.002057,-0.751954 -0.010287,-1.127416c-0.08435,-0.085379 -0.166644,-0.166644 -0.248937,-0.249965z" opacity="0.69" stroke-width="0.09375" fill="#221e1c"/>
   <path stroke="#221e1c" id="svg_37" d="m48.915556,113.70524c0.352832,-0.614113 1.225139,-0.73138 1.813535,-0.403236c-0.012344,0.221163 -0.024688,0.444383 -0.048347,0.666575c-0.28494,-0.095666 -0.28494,-0.432039 -0.378549,-0.668632c-0.256137,0.011315 -0.575023,-0.008229 -0.734466,0.236593c-0.306542,0.441297 -0.335345,1.052324 -0.102866,1.533739c0.110067,0.321972 0.511246,0.448498 0.81676,0.422781c0.184131,-0.20059 0.096694,-0.617199 0.436154,-0.651145c0.005143,0.217048 0.007201,0.435125 0.009258,0.654231c-0.484501,0.199561 -1.064668,0.217048 -1.516251,-0.073035c-0.509189,-0.389864 -0.658345,-1.181935 -0.295227,-1.71787z" opacity="0.69" stroke-width="0.09375" fill="#221e1c"/>
   <path stroke="#221e1c" id="svg_38" d="m69.313973,113.208395c0.236593,-0.04629 0.480386,-0.027774 0.721094,-0.037032c-0.073035,0.145042 -0.151214,0.294198 -0.140927,0.463928c-0.012344,0.562679 0.013373,1.126388 -0.011315,1.690096c0.059663,0.048347 0.180016,0.144013 0.239679,0.19236c-0.370319,0.089494 -0.756068,0.056577 -1.130502,0.021602c0.088465,-0.07715 0.188246,-0.13887 0.294198,-0.191332c-0.006172,-0.44644 0.033946,-0.894938 -0.029831,-1.338292c-0.263338,0.19236 -0.279797,0.543135 -0.407351,0.819846c-0.11521,0.243793 -0.13064,0.572966 -0.351803,0.744753l-0.124468,-0.040118c-0.232478,-0.453641 -0.340488,-0.959744 -0.572966,-1.412356c-0.036003,-0.026745 -0.110067,-0.080236 -0.14607,-0.106981c-0.01543,0.44644 -0.006172,0.894938 -0.001029,1.343436c0.088465,0.031889 0.266424,0.097723 0.355918,0.129612c-0.279797,0.129612 -0.609998,0.12344 -0.890823,0.004115c0.085379,-0.032917 0.25408,-0.09978 0.339459,-0.132698c-0.001029,-0.642915 0.002057,-1.285831 0.002057,-1.927717c-0.08435,-0.078178 -0.168701,-0.1543 -0.250994,-0.230421c0.265395,-0.022631 0.53182,-0.025717 0.798244,-0.020573c0.283911,0.480386 0.33123,1.082155 0.696406,1.514194c0.241736,-0.480386 0.356947,-1.014263 0.611027,-1.48642z" opacity="0.69" stroke-width="0.09375" fill="#221e1c"/>
   <path stroke="#221e1c" id="svg_39" d="m80.010026,113.322576c0.36209,-0.290083 0.908311,-0.248937 1.289945,-0.013373c-0.012344,0.184131 -0.022631,0.370319 -0.033946,0.557536c-0.266424,-0.028803 -0.281854,-0.30037 -0.369291,-0.491702c-0.25408,-0.235564 -0.781785,0.136812 -0.580167,0.462899c0.175902,0.222192 0.471128,0.291112 0.703606,0.441297c0.253051,0.132698 0.440268,0.404265 0.437182,0.695377c-0.054519,0.307571 -0.298313,0.587367 -0.614113,0.638801c-0.356947,0.097723 -0.720065,-0.007201 -1.061582,-0.10801c0.011315,-0.204704 -0.139898,-0.560622 0.137841,-0.624399c0.160472,0.137841 0.132698,0.385749 0.275682,0.536963c0.191332,0.102866 0.437182,0.051433 0.618227,-0.054519c0.120354,-0.153271 0.142984,-0.417638 -0.024688,-0.545192c-0.239679,-0.188246 -0.541078,-0.274653 -0.77767,-0.465985c-0.3158,-0.243793 -0.323001,-0.787957 -0.001029,-1.029693z" opacity="0.69" stroke-width="0.09375" fill="#221e1c"/>
   <path stroke="#221e1c" id="svg_40" d="m44.171356,113.355494c0.110067,-0.006172 0.221163,-0.010287 0.333287,-0.012344c0.003086,0.13887 0.007201,0.279797 0.011315,0.420724c0.144013,0.033946 0.286997,0.076121 0.429982,0.120354c-0.171787,0.07715 -0.471128,0.106981 -0.434096,0.364147c0.008229,0.375463 -0.069949,0.780756 0.105952,1.131531c0.087436,-0.005143 0.263338,-0.017487 0.350775,-0.022631c-0.162529,0.379577 -0.767384,0.388835 -0.953572,0.021602c-0.081264,-0.426896 0.018516,-0.866135 -0.048347,-1.292003c-0.03086,-0.040118 -0.093608,-0.121382 -0.124468,-0.162529c0.184131,-0.141956 0.271567,-0.351803 0.329173,-0.568851z" opacity="0.69" stroke-width="0.09375" fill="#221e1c"/>
   <path stroke="#221e1c" id="svg_41" d="m90.458171,113.351379c0.106981,-0.004115 0.214991,-0.005143 0.325058,-0.005143c0.006172,0.150185 0.022631,0.301399 0.04629,0.453641c0.155328,-0.034975 0.259223,0.014401 0.312714,0.14607c-0.117268,0.028803 -0.232478,0.057605 -0.347689,0.088465c0.010287,0.382663 -0.024688,0.768412 0.014401,1.151076c0.022631,0.227335 0.296255,0.181045 0.457756,0.187217c-0.201618,0.344603 -0.771498,0.373405 -0.969002,0.010287c-0.086408,-0.425867 0.018516,-0.865107 -0.053491,-1.288917c-0.027774,-0.042175 -0.085379,-0.128583 -0.114182,-0.170758c0.177959,-0.147099 0.266424,-0.356947 0.328144,-0.571937z" opacity="0.69" stroke-width="0.09375" fill="#221e1c"/>
   <path stroke="#221e1c" id="svg_42" d="m14.299968,114.661898c-0.03086,-0.634686 0.745782,-1.094499 1.298175,-0.807502c0.267453,0.178988 0.472157,0.518447 0.356947,0.845562c-0.345631,0.004115 -0.690234,0.004115 -1.034836,-0.002057c0.004115,0.204704 -0.024688,0.463928 0.183102,0.587367c0.241736,0.186188 0.542106,0.028803 0.778699,-0.07715c-0.037032,0.074064 -0.113153,0.221163 -0.150185,0.295227c-0.234535,0.070978 -0.478329,0.189274 -0.726237,0.111096c-0.438211,-0.072007 -0.77047,-0.511246 -0.705664,-0.952543m0.595597,-0.116239c0.168701,-0.004115 0.338431,-0.006172 0.509189,-0.007201c0.01543,-0.194418 0.067892,-0.43924 -0.116239,-0.571937c-0.349746,-0.085379 -0.373405,0.340488 -0.39295,0.579138z" opacity="0.69" stroke-width="0.09375" fill="#221e1c"/>
   <path stroke="#221e1c" id="svg_43" d="m19.338367,114.273062c0.209848,-0.451584 0.779728,-0.615141 1.222053,-0.436154c0.132698,0.093608 0.270539,0.229392 0.265395,0.407351c0.024688,0.34666 0.007201,0.694349 0.009258,1.043066c0.091551,0.064806 0.182074,0.131669 0.273625,0.20059c-0.064806,0.03086 -0.19236,0.09258 -0.257166,0.12344c-0.188246,0.095666 -0.351803,-0.088465 -0.509189,-0.160472c-0.242765,0.109038 -0.526676,0.280825 -0.784871,0.109038c-0.248937,-0.086408 -0.233507,-0.395007 -0.171787,-0.599711c0.224249,-0.293169 0.613084,-0.353861 0.945343,-0.451584c-0.018516,-0.194418 0.043204,-0.4701 -0.183102,-0.564737c-0.066863,0.006172 -0.201618,0.017487 -0.26951,0.022631c-0.008229,0.133726 -0.01543,0.268481 -0.022631,0.404265c-0.186188,0.083322 -0.376491,0.055548 -0.517418,-0.097723m0.530791,0.736524c-0.021602,0.129612 0.003086,0.278768 0.14607,0.327115c0.068921,-0.014401 0.20779,-0.042175 0.276711,-0.055548c0.005143,-0.203676 0.010287,-0.407351 0.012344,-0.607941c-0.173844,0.064806 -0.350775,0.1615 -0.435125,0.336373z" opacity="0.69" stroke-width="0.09375" fill="#221e1c"/>
   <path stroke="#221e1c" id="svg_44" d="m36.922357,113.824565c0.288026,-0.095666 0.661431,-0.087436 0.866135,0.16973c0.195446,0.181045 0.182074,0.458784 0.190303,0.703606c-0.343574,0.014401 -0.688177,-0.007201 -1.030722,0.01543c-0.13887,0.1543 0.022631,0.37752 0.121382,0.514332c0.229392,0.263338 0.582224,0.086408 0.863049,0.034975c-0.312714,0.529762 -1.172677,0.474214 -1.478191,-0.032917c-0.347689,-0.4773 -0.078178,-1.217939 0.468042,-1.405156m0.218077,0.13887c-0.198532,0.113153 -0.182074,0.378549 -0.229392,0.573995c0.16973,0 0.339459,0 0.509189,0.002057c0.053491,-0.214991 0.043204,-0.651145 -0.279797,-0.576052z" opacity="0.69" stroke-width="0.09375" fill="#221e1c"/>
   <path stroke="#221e1c" id="svg_45" d="m40.448619,114.134193c0.271567,-0.353861 0.775613,-0.475243 1.172677,-0.265395c0.240707,0.055548 0.17693,0.529762 -0.072007,0.481415c-0.079207,-0.127554 -0.121382,-0.276711 -0.213962,-0.391921c-0.180016,-0.063777 -0.462899,0.053491 -0.390892,0.279797c0.181045,0.219106 0.510218,0.217048 0.723151,0.402208c0.281854,0.196475 0.257166,0.66246 -0.027774,0.846591c-0.341517,0.228364 -0.846591,0.20779 -1.175763,-0.029831c-0.047319,-0.209848 -0.024688,-0.489644 0.271567,-0.421752c0.003086,0.086408 0.009258,0.260252 0.012344,0.347689c0.158414,0.068921 0.333287,0.14607 0.496845,0.044233c0.151214,-0.03086 0.209848,-0.245851 0.085379,-0.339459c-0.242765,-0.191332 -0.598683,-0.20059 -0.807502,-0.444383c-0.091551,-0.152242 -0.04629,-0.343574 -0.074064,-0.509189z" opacity="0.69" stroke-width="0.09375" fill="#221e1c"/>
   <path stroke="#221e1c" id="svg_46" d="m46.545513,113.824565c0.217048,-0.021602 0.434096,-0.020573 0.652173,-0.009258c-0.643944,0.705664 -0.586339,1.783704 -1.229254,2.494511c-0.165615,0.168701 -0.487587,0.194418 -0.637772,-0.009258c-0.137841,-0.168701 0.10801,-0.282883 0.209848,-0.368262c0.156357,0.082293 0.313743,0.163558 0.471128,0.245851c0.093608,-0.199561 0.210876,-0.426896 0.09978,-0.644973c-0.252023,-0.572966 -0.450555,-1.172677 -0.771498,-1.712726c0.272596,-0.011315 0.545192,-0.012344 0.818817,-0.013373c-0.12344,0.419695 0.085379,0.858935 0.328144,1.195308c0.13064,-0.337402 0.243793,-0.682005 0.297284,-1.03998c-0.059663,-0.033946 -0.178988,-0.103895 -0.23865,-0.137841z" opacity="0.69" stroke-width="0.09375" fill="#221e1c"/>
   <path stroke="#221e1c" id="svg_47" d="m52.77922,114.110533c0.286997,-0.304485 0.726237,-0.410437 1.126388,-0.297284c0.156357,0.070978 0.264367,0.230421 0.314771,0.393978c0.067892,0.374434 -0.017487,0.760183 0.045261,1.136674c0.059663,0.039089 0.180016,0.117268 0.239679,0.156357c-0.07715,0.031889 -0.230421,0.096694 -0.306542,0.128583c-0.197504,0.043204 -0.352832,-0.117268 -0.515361,-0.194418c-0.241736,0.228364 -0.577081,0.234535 -0.863049,0.090522c-0.033946,-0.14607 -0.158414,-0.295227 -0.085379,-0.442326c0.110067,-0.374434 0.545192,-0.449526 0.874365,-0.518447c-0.131669,0.20059 -0.391921,0.359004 -0.366205,0.628514c0.059663,0.174873 0.256137,0.141956 0.401179,0.16973c0.029831,-0.163558 0.048347,-0.328144 0.031889,-0.490673c-0.036003,-0.298313 0.050405,-0.598683 -0.022631,-0.892881c-0.118296,-0.020573 -0.234535,-0.039089 -0.350775,-0.055548c-0.023659,0.180016 -0.012344,0.459813 -0.244822,0.505074c-0.199561,0.065835 -0.281854,-0.163558 -0.278768,-0.317857z" opacity="0.69" stroke-width="0.09375" fill="#221e1c"/>
   <path stroke="#221e1c" id="svg_48" d="m55.332365,113.831765c0.3158,-0.136812 0.659374,-0.029831 0.957687,0.100809c-0.027774,0.150185 0.042175,0.372377 -0.162529,0.41558c-0.118296,-0.112124 -0.177959,-0.268481 -0.271567,-0.396036c-0.224249,-0.051433 -0.517418,0.019545 -0.422781,0.313743c0.226306,0.203676 0.557536,0.250994 0.826018,0.395007c0.070978,0.186188 0.202647,0.403236 0.072007,0.598683c-0.212934,0.442326 -0.807502,0.442326 -1.208681,0.298313c-0.236593,-0.050405 -0.208819,-0.344603 -0.127554,-0.512275c0.252023,-0.12344 0.271567,0.228364 0.332259,0.375463c0.187217,0.003086 0.469071,0.082293 0.556507,-0.150185c-0.096694,-0.360033 -0.572966,-0.326087 -0.797215,-0.572966c-0.292141,-0.258195 -0.095666,-0.761212 0.245851,-0.866135z" opacity="0.69" stroke-width="0.09375" fill="#221e1c"/>
   <path stroke="#221e1c" id="svg_49" d="m57.026576,113.998409c0.311685,-0.325058 0.815731,-0.255109 1.182964,-0.070978c0.003086,0.087436 0.008229,0.263338 0.011315,0.351803c-0.082293,0.01543 -0.163558,0.031889 -0.244822,0.050405c-0.09258,-0.12344 -0.082293,-0.410437 -0.282883,-0.389864c-0.220134,-0.067892 -0.481415,0.193389 -0.274653,0.381635c0.260252,0.162529 0.61617,0.178988 0.810588,0.441297c0.228364,0.285969 0.004115,0.745782 -0.334316,0.819846c-0.323001,0.118296 -0.663489,0.034975 -0.979289,-0.058634c-0.037032,-0.168701 -0.032917,-0.339459 -0.001029,-0.505074c0.048347,0.003086 0.142984,0.009258 0.191332,0.012344c0.06172,0.148128 0.124468,0.297284 0.18516,0.448498c0.178988,-0.034975 0.469071,0.027774 0.544164,-0.191332c-0.017487,-0.316829 -0.402208,-0.342545 -0.621313,-0.46187c-0.348717,-0.102866 -0.44644,-0.58531 -0.187217,-0.828075z" opacity="0.69" stroke-width="0.09375" fill="#221e1c"/>
   <path stroke="#221e1c" id="svg_50" d="m60.348133,114.250432c0.239679,-0.469071 0.93197,-0.646001 1.342407,-0.299341c0.168701,0.117268 0.271567,0.447469 0.010287,0.521533c-0.290083,0.010287 -0.348717,-0.309628 -0.348717,-0.53182c-0.14607,0.016459 -0.326087,0.011315 -0.405294,0.163558c-0.21602,0.359004 -0.230421,0.926827 0.139898,1.189136c0.23865,0.175902 0.524619,-0.008229 0.77047,-0.064806c-0.239679,0.448498 -0.869221,0.526676 -1.2632,0.244822c-0.364147,-0.276711 -0.495816,-0.829104 -0.245851,-1.223082z" opacity="0.69" stroke-width="0.09375" fill="#221e1c"/>
   <path stroke="#221e1c" id="svg_51" d="m62.850874,113.825593c0.333287,-0.091551 0.822932,-0.110067 0.982375,0.270539c0.127554,0.402208 0.012344,0.83219 0.065835,1.245713c0.052462,0.029831 0.158414,0.088465 0.210876,0.118296c-0.197504,0.281854 -0.541078,0.166644 -0.760183,-0.018516c-0.163558,0.07715 -0.321972,0.217048 -0.514332,0.19236c-0.121382,-0.032917 -0.240707,-0.067892 -0.357975,-0.104924c-0.053491,-0.174873 -0.18516,-0.375463 -0.057605,-0.548278c0.196475,-0.311685 0.597654,-0.363119 0.919626,-0.471128c-0.007201,-0.147099 -0.004115,-0.293169 -0.026745,-0.435125c-0.026745,-0.159443 -0.235564,-0.118296 -0.34666,-0.160472c-0.049376,0.160472 -0.010287,0.398093 -0.189274,0.488616c-0.111096,0.070978 -0.260252,0.037032 -0.329173,-0.073035c-0.063777,-0.255109 0.20059,-0.425867 0.403236,-0.504046m0.057605,1.206623c-0.037032,0.129612 0.068921,0.240707 0.11521,0.355918c0.09978,-0.040118 0.20059,-0.080236 0.302427,-0.117268c-0.003086,-0.208819 -0.006172,-0.417638 -0.011315,-0.623371c-0.163558,0.090522 -0.343574,0.196475 -0.406322,0.384721z" opacity="0.69" stroke-width="0.09375" fill="#221e1c"/>
   <path stroke="#221e1c" id="svg_52" d="m73.445089,113.853367c0.302427,-0.163558 0.663489,-0.063777 0.957687,0.072007c-0.009258,0.158414 -0.019545,0.318886 -0.029831,0.480386c-0.303456,-0.041147 -0.259223,-0.584281 -0.61617,-0.442326c-0.059663,0.044233 -0.181045,0.131669 -0.241736,0.175902c0.227335,0.34666 0.716979,0.320943 0.956658,0.649087c0.043204,0.158414 0.025717,0.328144 0.036003,0.493759c-0.142984,0.119325 -0.26951,0.276711 -0.459813,0.319915c-0.324029,0.117268 -0.654231,-0.019545 -0.965916,-0.103895c0.009258,-0.188246 0.021602,-0.378549 0.131669,-0.537992c0.125497,0.137841 0.201618,0.309628 0.292141,0.473186c0.173844,0.104924 0.370319,-0.013373 0.543135,-0.06172c0.025717,-0.55445 -0.758126,-0.378549 -0.910368,-0.819846c-0.13887,-0.272596 0.06172,-0.576052 0.306542,-0.698463z" opacity="0.69" stroke-width="0.09375" fill="#221e1c"/>
   <path stroke="#221e1c" id="svg_53" d="m82.719528,113.779303c0.689205,-0.156357 1.311547,0.670689 0.998833,1.293031c-0.206762,0.617199 -1.096556,0.73961 -1.527567,0.295227c-0.159443,-0.197504 -0.264367,-0.448498 -0.253051,-0.702578c0.017487,-0.428953 0.348717,-0.831161 0.781785,-0.88568m0.085379,0.181045c-0.237621,0.12344 -0.237621,0.467014 -0.259223,0.705664c0.007201,0.295227 -0.006172,0.744753 0.371348,0.809559c0.319915,-0.264367 0.233507,-0.741667 0.218077,-1.107872c-0.025717,-0.163558 -0.097723,-0.490673 -0.330201,-0.407351z" opacity="0.69" stroke-width="0.09375" fill="#221e1c"/>
   <path stroke="#221e1c" id="svg_54" d="m84.734682,113.915087c0.402208,-0.270539 1.091413,-0.162529 1.227197,0.359004c-0.057605,0.09978 -0.155328,0.237621 -0.290083,0.191332c-0.228364,-0.065835 -0.206762,-0.332259 -0.252023,-0.514332c-0.183102,-0.01543 -0.37752,0.038061 -0.44644,0.227335c-0.155328,0.372377 -0.168701,0.932999 0.242765,1.14799c0.210876,0.126526 0.445412,-0.026745 0.653202,-0.081264c-0.226306,0.55445 -1.125359,0.493759 -1.407213,0.009258c-0.313743,-0.421752 -0.165615,-1.066725 0.272596,-1.339321z" opacity="0.69" stroke-width="0.09375" fill="#221e1c"/>
   <path stroke="#221e1c" id="svg_55" d="m92.829242,113.828679c0.213962,-0.021602 0.432039,-0.026745 0.649087,-0.013373c-0.664517,0.713893 -0.564737,1.845424 -1.279659,2.528457c-0.189274,0.205733 -0.701549,0.088465 -0.602797,-0.243793c0.059663,-0.040118 0.177959,-0.120354 0.236593,-0.1615c0.145042,0.075093 0.292141,0.149156 0.440268,0.225278c0.058634,-0.120354 0.157386,-0.225278 0.172816,-0.361061c-0.003086,-0.194418 -0.096694,-0.369291 -0.167672,-0.543135c-0.217048,-0.480386 -0.385749,-0.983403 -0.652173,-1.44013c0.271567,-0.011315 0.544164,-0.012344 0.817788,-0.012344c-0.019545,0.155328 -0.081264,0.319915 -0.017487,0.475243c0.094637,0.245851 0.136812,0.532848 0.353861,0.709778c0.106981,-0.337402 0.211905,-0.675833 0.292141,-1.019406c-0.060691,-0.036003 -0.182074,-0.10801 -0.242765,-0.144013z" opacity="0.69" stroke-width="0.09375" fill="#221e1c"/>
   <path stroke="#221e1c" id="svg_56" d="m16.489995,113.940804c0.20779,-0.041147 0.412494,-0.097723 0.608969,-0.174873c0.217048,0.165615 0.117268,0.460842 0.137841,0.694349c-0.042175,0.546221 0.118296,1.14799 -0.182074,1.645863c-0.225278,0.401179 -0.843505,0.458784 -1.140789,0.106981c0.100809,-0.096694 0.203676,-0.190303 0.306542,-0.282883c0.14607,0.070978 0.292141,0.144013 0.438211,0.21602c0.029831,-0.597654 0.016459,-1.196337 0.013373,-1.792962c0.018516,-0.164586 -0.103895,-0.286997 -0.182074,-0.412494z" opacity="0.69" stroke-width="0.09375" fill="#221e1c"/>
   <path stroke="#221e1c" id="svg_57" d="m17.894122,113.942861c0.252023,-0.056577 0.501988,-0.118296 0.75504,-0.172816c0.088465,0.591482 -0.070978,1.203537 0.113153,1.780618c-0.248937,0.01543 -0.497874,0.020573 -0.74681,0.019545c0.11521,-0.467014 0.054519,-0.950486 0.066863,-1.425729c-0.047319,-0.050405 -0.141956,-0.151214 -0.188246,-0.201618z" opacity="0.69" stroke-width="0.09375" fill="#221e1c"/>
   <path stroke="#221e1c" id="svg_58" d="m21.585999,113.960348c0.257166,-0.090522 0.581195,-0.252023 0.806473,-0.004115c0.293169,-0.265395 0.835276,-0.246879 0.970031,0.173844c0.054519,0.389864 0.012344,0.786928 0.016459,1.180907c0.054519,0.081264 0.10801,0.163558 0.162529,0.246879c-0.274653,0.008229 -0.549307,0.011315 -0.822932,0.016459c0.1543,-0.460842 0.056577,-0.952543 0.083322,-1.425729c-0.166644,-0.109038 -0.336373,-0.021602 -0.482444,0.07715c0.033946,0.448498 -0.033946,0.905225 0.078178,1.346522c-0.267453,-0.001029 -0.533877,-0.007201 -0.800301,-0.020573c0.047319,-0.080236 0.095666,-0.160472 0.145042,-0.23865c-0.009258,-0.363119 -0.011315,-0.726237 -0.001029,-1.088327c-0.052462,-0.089494 -0.103895,-0.17693 -0.155328,-0.264367z" opacity="0.69" stroke-width="0.09375" fill="#221e1c"/>
   <path stroke="#221e1c" id="svg_59" d="m24.113427,114.218543c0.081264,-0.311685 0.409408,-0.427924 0.695377,-0.464956c-0.016459,0.06172 -0.049376,0.186188 -0.064806,0.247908c-0.219106,0.177959 -0.167672,0.53902 -0.018516,0.749896c-0.112124,0.126526 -0.301399,0.217048 -0.259223,0.420724c0.351803,0.13887 0.748868,0.016459 1.103757,0.145042c0.239679,0.10801 0.378549,0.428953 0.20779,0.655259c-0.188246,0.365176 -0.638801,0.422781 -1.005005,0.450555c-0.291112,-0.010287 -0.651145,-0.102866 -0.76224,-0.40838c0.017487,-0.170758 0.142984,-0.289055 0.248937,-0.40838c-0.255109,-0.214991 -0.094637,-0.506103 0.033946,-0.73961c-0.120354,-0.19236 -0.283911,-0.411466 -0.180016,-0.648059m0.286997,1.512137c-0.085379,0.195446 0.03086,0.475243 0.271567,0.451584c0.243793,-0.002057 0.557536,0.053491 0.723151,-0.174873c0.010287,-0.141956 -0.063777,-0.262309 -0.209848,-0.26951c-0.260252,-0.034975 -0.525648,-0.044233 -0.784871,-0.007201z" opacity="0.69" stroke-width="0.09375" fill="#221e1c"/>
   <path stroke="#221e1c" id="svg_60" d="m24.808805,113.957262c0.069949,-0.06172 0.140927,-0.120354 0.213962,-0.174873c0.275682,0.155328 0.576052,0.09978 0.859963,0.002057c0,0.211905 -0.104924,0.313743 -0.3158,0.305513c0.020573,0.072007 0.06172,0.213962 0.082293,0.285969c-0.110067,0.320943 -0.335345,0.596625 -0.70875,0.602797c0.017487,-0.076121 0.050405,-0.230421 0.067892,-0.307571l0.068921,0.027774c-0.014401,-0.246879 0.142984,-0.783842 -0.268481,-0.741667z" opacity="0.69" stroke-width="0.09375" fill="#221e1c"/>
   <path stroke="#221e1c" id="svg_61" d="m30.297758,113.941832c0.201618,-0.044233 0.40015,-0.103895 0.594568,-0.177959c0.039089,0.058634 0.117268,0.175902 0.156357,0.234535c0.160472,-0.098752 0.3158,-0.239679 0.518447,-0.221163c0.240707,-0.044233 0.450555,0.153271 0.511246,0.374434c0.096694,0.381635 0.048347,0.781785 0.020573,1.17062c0.047319,0.049376 0.140927,0.149156 0.188246,0.198532c-0.299341,0.068921 -0.608969,0.066863 -0.910368,0.026745c0.226306,-0.462899 0.151214,-1.010149 0.060691,-1.497735c-0.13064,0.057605 -0.259223,0.119325 -0.387807,0.183102c0.01543,0.363119 -0.026745,0.73138 0.022631,1.09347l0.114182,0.131669c-0.226306,0.21602 -0.576052,0.07715 -0.855849,0.09978c0.049376,-0.08435 0.09978,-0.167672 0.150185,-0.249965c-0.002057,-0.357975 -0.004115,-0.71595 -0.006172,-1.072897c-0.058634,-0.098752 -0.118296,-0.196475 -0.17693,-0.293169z" opacity="0.69" stroke-width="0.09375" fill="#221e1c"/>
   <path stroke="#221e1c" id="svg_62" d="m32.821072,113.936689c0.235564,-0.025717 0.473186,-0.180016 0.705664,-0.114182c0.1543,0.558565 -0.131669,1.205595 0.166644,1.731242c-0.256137,0.009258 -0.511246,0.016459 -0.766355,0.018516c0.090522,-0.434096 0.063777,-0.881565 0.053491,-1.319777c0.006172,-0.129612 -0.103895,-0.214991 -0.159443,-0.3158z" opacity="0.69" stroke-width="0.09375" fill="#221e1c"/>
   <path stroke="#221e1c" id="svg_63" d="m34.131591,113.814278c0.309628,-0.009258 0.620285,-0.008229 0.929913,0.003086c-0.041147,0.051433 -0.12344,0.1543 -0.164586,0.205733c0.086408,0.302427 0.126526,0.641887 0.369291,0.869221c0.137841,-0.277739 0.218077,-0.578109 0.295227,-0.875393c-0.050405,-0.050405 -0.151214,-0.150185 -0.201618,-0.199561c0.198532,-0.004115 0.398093,-0.006172 0.597654,-0.004115c-0.075093,0.091551 -0.151214,0.18516 -0.225278,0.278768c-0.258195,0.478329 -0.387807,1.007063 -0.594568,1.505965c-0.118296,-0.044233 -0.283911,-0.051433 -0.317857,-0.20059c-0.221163,-0.530791 -0.374434,-1.096556 -0.688177,-1.583115z" opacity="0.69" stroke-width="0.09375" fill="#221e1c"/>
   <path stroke="#221e1c" id="svg_64" d="m38.56102,113.93566c0.184131,-0.042175 0.364147,-0.096694 0.543135,-0.159443c0.066863,0.070978 0.134755,0.145042 0.202647,0.220134c0.182074,-0.132698 0.384721,-0.234535 0.61617,-0.230421c0.056577,0.149156 0.160472,0.307571 0.057605,0.467014c-0.181045,0.131669 -0.357975,-0.020573 -0.525648,-0.091551c-0.298313,0.306542 -0.217048,0.761212 -0.197504,1.149018c0.008229,0.12344 0.163558,0.167672 0.235564,0.25408c-0.305513,0.025717 -0.612055,0.03086 -0.917569,0.019545c0.167672,-0.343574 0.119325,-0.735495 0.11521,-1.104786c0.003086,-0.18516 -0.062749,-0.356947 -0.129612,-0.52359z" opacity="0.69" stroke-width="0.09375" fill="#221e1c"/>
   <path stroke="#221e1c" id="svg_65" d="m42.379422,113.927431c0.243793,-0.045261 0.486558,-0.098752 0.73138,-0.137841c0.001029,0.464956 -0.01543,0.929913 -0.003086,1.394869c-0.025717,0.148128 0.080236,0.257166 0.162529,0.367233c-0.260252,0.009258 -0.519476,0.020573 -0.778699,0.024688c0.080236,-0.468042 0.082293,-0.949457 0.032917,-1.418528c-0.036003,-0.057605 -0.109038,-0.172816 -0.145042,-0.230421z" opacity="0.69" stroke-width="0.09375" fill="#221e1c"/>
   <path stroke="#221e1c" id="svg_66" d="m58.835996,113.924345c0.237621,-0.037032 0.473186,-0.135784 0.718008,-0.106981c0.04629,0.139898 0.025717,0.288026 0.020573,0.435125c-0.022631,0.438211 -0.016459,0.882594 0.06172,1.316691c-0.23145,-0.001029 -0.462899,-0.002057 -0.69332,0.001029c0.081264,-0.401179 0.073035,-0.813674 0.057605,-1.218967c0.014401,-0.165615 -0.086408,-0.296255 -0.164586,-0.426896z" opacity="0.69" stroke-width="0.09375" fill="#221e1c"/>
   <path stroke="#221e1c" id="svg_67" d="m70.542198,113.906858c0.244822,-0.056577 0.490673,-0.102866 0.741667,-0.124468c0.011315,0.434096 -0.009258,0.868193 0.005143,1.303318c-0.052462,0.318886 0.52359,0.293169 0.528734,0.013373c0.025717,-0.329173 0.009258,-0.658345 0.023659,-0.986489c-0.045261,-0.044233 -0.137841,-0.134755 -0.184131,-0.178988c0.227335,-0.070978 0.458784,-0.122411 0.69332,-0.1615c0.029831,0.509189 -0.004115,1.018378 0.016459,1.528595c0.036003,0.103895 0.073035,0.210876 0.104924,0.318886c-0.242765,-0.01543 -0.560622,0.086408 -0.702578,-0.181045c-0.162529,0.075093 -0.319915,0.171787 -0.497874,0.201618c-0.157386,0.008229 -0.286997,-0.09258 -0.426896,-0.141956c-0.224249,-0.438211 -0.073035,-0.934027 -0.137841,-1.396926c-0.041147,-0.049376 -0.12344,-0.14607 -0.164586,-0.194418z" opacity="0.69" stroke-width="0.09375" fill="#221e1c"/>
   <path stroke="#221e1c" id="svg_68" d="m75.081694,113.926403c0.23145,-0.057605 0.465985,-0.110067 0.704635,-0.134755c0.03086,0.590453 -0.06172,1.192222 0.076121,1.773418c-0.25408,0.002057 -0.506103,0.001029 -0.758126,-0.001029c0.13887,-0.352832 0.102866,-0.736524 0.103895,-1.105814c0.009258,-0.188246 -0.06172,-0.36209 -0.126526,-0.53182z" opacity="0.69" stroke-width="0.09375" fill="#221e1c"/>
   <path stroke="#221e1c" id="svg_69" d="m76.723443,114.047785c0.285969,-0.301399 0.815731,-0.37752 1.156219,-0.128583c0.164586,0.116239 0.307571,0.409408 0.080236,0.542106c-0.326087,0.082293 -0.379577,-0.312714 -0.417638,-0.537992c-0.19236,0.016459 -0.371348,0.109038 -0.450555,0.293169c-0.055548,0.244822 -0.044233,0.501988 -0.021602,0.751954c0.017487,0.195446 0.195446,0.340488 0.376491,0.388835c0.203676,0.064806 0.389864,-0.076121 0.576052,-0.134755c-0.136812,0.429982 -0.706692,0.498902 -1.065696,0.327115c-0.56988,-0.235564 -0.684062,-1.100671 -0.233507,-1.50185z" opacity="0.69" stroke-width="0.09375" fill="#221e1c"/>
   <path stroke="#221e1c" id="svg_70" d="m86.518386,113.920231c0.239679,-0.048347 0.480386,-0.097723 0.72418,-0.125497c0.022631,0.592511 -0.040118,1.189136 0.054519,1.777532c-0.267453,-0.001029 -0.534906,-0.007201 -0.800301,-0.026745c0.040118,-0.039089 0.121382,-0.117268 0.1615,-0.156357c-0.023659,-0.487587 0.128583,-1.029693 -0.139898,-1.468933z" opacity="0.69" stroke-width="0.09375" fill="#221e1c"/>
   <path stroke="#221e1c" id="svg_71" d="m88.153962,114.061158c0.326087,-0.40015 1.095528,-0.405294 1.329034,0.095666c0.073035,0.155328 0.162529,0.344603 0.07715,0.515361c-0.329173,0.065835 -0.666575,0.022631 -0.998833,0.019545c-0.024688,0.213962 -0.043204,0.49273 0.181045,0.614113c0.244822,0.162529 0.520504,-0.005143 0.752982,-0.103895c-0.20779,0.58531 -1.043066,0.53182 -1.39384,0.122411c-0.278768,-0.361061 -0.282883,-0.937113 0.052462,-1.2632m0.393978,0.481415c0.160472,-0.007201 0.321972,-0.014401 0.484501,-0.020573c-0.002057,-0.20779 0.040118,-0.584281 -0.271567,-0.564737c-0.246879,0.086408 -0.191332,0.379577 -0.212934,0.58531z" opacity="0.69" stroke-width="0.09375" fill="#221e1c"/>
  </g>
 </g>
</svg>