<?xml version="1.0" encoding="UTF-8" ?>
<!DOCTYPE svg PUBLIC "-//W3C//DTD SVG 1.1//EN" "http://www.w3.org/Graphics/SVG/1.1/DTD/svg11.dtd">
<svg width="1125pt" height="1125pt" viewBox="0 0 1125 1125" version="1.1" xmlns="http://www.w3.org/2000/svg">
<path fill="#221e1c" stroke="#221e1c" stroke-width="0.09375" opacity="0.69" d=" M 138.51 71.43 C 134.78 65.07 140.77 56.25 147.94 56.71 C 180.86 56.61 213.78 56.76 246.69 56.63 C 246.93 58.08 247.17 59.53 247.19 61.00 C 247.17 123.00 247.20 185.00 247.18 247.00 C 247.17 250.64 247.24 254.28 247.06 257.92 C 245.84 257.10 244.96 255.97 244.29 254.70 C 209.05 193.60 173.72 132.54 138.51 71.43 M 143.61 66.05 C 142.98 67.54 144.18 68.97 144.72 70.30 C 176.13 124.57 207.46 178.90 238.80 233.22 C 239.31 234.22 240.11 234.91 241.19 235.31 C 241.33 177.86 241.17 120.41 241.27 62.95 C 235.85 62.67 230.42 62.81 225.00 62.77 C 199.66 62.79 174.32 62.75 148.99 62.79 C 146.75 62.60 144.10 63.61 143.61 66.05 Z" />
<path fill="#221e1c" stroke="#221e1c" stroke-width="0.09375" opacity="0.69" d=" M 262.61 56.67 C 295.74 56.72 328.87 56.64 362.00 56.71 C 363.54 56.79 365.18 56.59 366.66 57.19 C 367.25 59.06 366.98 61.07 367.04 63.01 C 367.05 192.34 367.04 321.67 367.04 451.00 C 366.98 455.90 367.27 460.82 366.71 465.70 C 364.70 463.74 363.48 461.20 362.12 458.80 C 329.09 401.52 296.00 344.27 262.95 287.01 C 262.25 285.79 262.38 284.34 262.32 283.00 C 262.35 212.34 262.32 141.67 262.33 71.00 C 262.36 66.22 262.18 61.43 262.61 56.67 M 268.26 62.52 C 268.13 134.68 268.28 206.84 268.19 279.00 C 268.28 281.54 267.77 284.36 269.35 286.59 C 298.15 336.47 326.96 386.36 355.75 436.25 C 357.33 438.90 358.51 441.88 360.92 443.93 C 361.26 441.63 361.40 439.31 361.39 437.00 C 361.39 317.33 361.39 197.66 361.39 77.99 C 361.37 72.87 361.45 67.74 361.29 62.62 C 355.53 62.32 349.76 62.52 344.00 62.46 C 318.75 62.50 293.51 62.40 268.26 62.52 Z" />
<path fill="#221e1c" stroke="#221e1c" stroke-width="0.09375" opacity="0.69" d=" M 382.34 58.24 C 400.84 60.06 419.00 65.16 435.80 73.12 C 447.66 79.18 459.28 85.92 469.48 94.54 C 476.02 100.64 482.86 106.47 488.78 113.21 C 502.80 128.59 514.51 145.92 525.45 163.58 C 528.28 167.86 526.97 173.19 527.17 177.99 C 527.17 363.33 527.15 548.67 527.18 734.00 C 527.23 736.80 526.90 739.60 526.27 742.34 C 525.42 741.28 524.63 740.17 523.90 739.04 C 477.94 659.36 431.94 579.69 385.93 500.04 C 384.75 497.91 383.33 495.89 382.45 493.61 C 381.94 490.43 382.34 487.19 382.27 484.00 C 382.27 346.00 382.27 208.00 382.27 70.00 C 382.26 66.08 382.22 62.16 382.34 58.24 M 388.33 64.89 C 388.18 73.26 388.28 81.63 388.25 90.00 C 388.25 221.34 388.25 352.67 388.25 484.00 C 388.28 486.65 388.07 489.31 388.43 491.95 C 388.99 493.54 389.89 494.99 390.72 496.47 C 433.57 570.59 476.32 644.78 519.16 718.90 C 519.55 719.39 520.34 720.37 520.73 720.86 C 520.89 712.90 520.74 704.95 520.80 697.00 C 520.80 523.00 520.80 348.99 520.80 174.99 C 520.75 172.36 521.01 169.69 520.53 167.09 C 519.20 164.25 517.28 161.74 515.68 159.05 C 504.75 142.42 493.46 125.80 479.12 111.88 C 472.81 105.47 466.33 99.19 459.01 93.93 C 450.32 87.74 441.09 82.33 431.52 77.62 C 417.84 71.29 403.21 67.21 388.33 64.89 Z" />
<path fill="#221e1c" stroke="#221e1c" stroke-width="0.09375" opacity="0.69" d=" M 869.19 146.26 C 871.78 145.96 874.38 145.69 877.01 145.67 C 904.34 145.67 931.67 145.68 959.00 145.66 C 961.85 145.68 964.82 146.16 967.29 147.71 C 970.19 149.74 971.83 153.41 971.46 156.94 C 971.26 159.69 969.66 162.03 968.38 164.38 C 894.21 292.86 820.02 421.31 745.87 549.81 C 744.81 551.15 744.38 553.74 742.36 553.84 C 741.97 550.24 742.20 546.61 742.18 543.00 C 742.15 453.33 742.20 363.66 742.15 274.00 C 742.33 271.83 741.49 269.08 743.58 267.61 C 753.53 258.89 762.56 249.11 770.35 238.41 C 784.57 219.82 796.62 199.66 811.39 181.50 C 815.88 175.99 820.98 171.03 826.04 166.05 C 831.05 161.17 837.04 157.42 843.20 154.16 C 851.15 149.66 860.13 147.12 869.19 146.26 M 850.85 156.99 C 843.11 160.82 835.45 165.15 829.24 171.25 C 812.08 187.23 799.75 207.40 786.40 226.47 C 778.36 237.63 770.39 248.91 760.99 258.99 C 756.85 263.24 752.57 267.36 748.28 271.45 C 748.15 352.64 748.26 433.82 748.22 515.00 C 748.25 520.78 748.18 526.56 748.33 532.33 C 750.67 530.92 751.43 528.16 752.80 525.96 C 820.04 409.50 887.29 293.04 954.52 176.57 C 957.28 171.68 960.02 166.78 963.10 162.08 C 964.23 160.21 965.66 158.29 965.60 155.99 C 965.74 153.91 963.91 152.13 961.96 151.81 C 959.00 151.28 955.98 151.61 953.00 151.56 C 929.00 151.53 905.01 151.54 881.01 151.55 C 870.76 151.62 860.24 152.53 850.85 156.99 Z" />
<path fill="#221e1c" stroke="#221e1c" stroke-width="0.09375" opacity="0.69" d=" M 542.32 193.87 C 543.75 194.40 544.74 195.55 545.42 196.88 C 552.41 209.23 560.11 221.16 568.21 232.80 C 573.62 240.89 579.59 248.63 586.37 255.63 C 597.00 267.59 609.75 277.90 624.40 284.51 C 634.01 289.20 644.50 291.85 655.05 293.30 C 659.03 293.77 663.05 293.66 667.03 294.15 C 671.03 294.65 675.03 293.90 679.03 293.72 C 691.41 293.57 703.44 290.03 714.94 285.69 C 718.94 284.23 722.52 281.87 726.43 280.21 C 726.67 285.14 726.58 290.07 726.61 295.00 C 726.63 389.67 726.60 484.34 726.62 579.01 C 726.51 580.90 726.78 582.99 725.72 584.69 C 681.43 661.38 637.16 738.08 592.88 814.77 C 591.13 817.69 589.75 820.89 587.41 823.41 C 583.70 827.08 577.18 827.19 573.39 823.59 C 571.61 821.56 570.63 819.01 569.18 816.77 C 561.04 803.46 553.20 789.98 545.48 776.43 C 544.47 774.60 543.18 772.90 542.50 770.92 C 542.12 768.63 542.29 766.30 542.28 764.00 C 542.33 573.96 542.23 383.91 542.32 193.87 M 548.38 214.67 C 548.23 223.11 548.32 231.56 548.29 240.00 C 548.30 416.00 548.27 592.00 548.31 768.00 C 548.25 769.56 549.23 770.87 549.91 772.21 C 557.64 785.46 565.30 798.75 572.95 812.04 C 574.86 815.23 576.29 819.09 579.92 820.74 C 581.60 819.97 583.57 819.37 584.41 817.55 C 629.70 739.18 674.94 660.77 720.20 582.38 C 721.17 579.71 720.57 576.77 720.71 574.00 C 720.71 479.29 720.67 384.58 720.73 289.87 C 707.80 295.22 694.10 299.10 680.06 299.70 C 670.52 300.84 660.92 299.91 651.43 298.79 C 643.12 297.22 634.73 295.59 626.94 292.20 C 613.54 287.01 601.50 278.73 591.07 268.94 C 576.06 255.23 564.41 238.41 553.40 221.46 C 551.81 219.14 550.74 216.35 548.38 214.67 Z" />
<path fill="#221e1c" stroke="#221e1c" stroke-width="0.09375" opacity="0.69" d=" M 190.49 957.22 C 190.52 952.67 190.41 948.12 190.66 943.59 C 193.74 943.77 196.78 944.32 199.83 944.75 C 197.42 947.00 198.31 950.40 198.24 953.32 C 199.54 953.99 200.83 954.69 202.12 955.42 C 202.21 953.05 202.31 950.70 202.49 948.35 C 204.51 948.79 206.52 950.05 208.64 949.63 C 211.36 948.18 213.62 946.05 216.01 944.14 C 218.76 946.09 221.53 948.16 223.30 951.10 C 218.80 951.13 214.29 951.35 209.87 952.25 C 209.59 955.92 209.67 959.60 209.74 963.28 C 211.16 963.34 212.59 963.33 214.02 963.26 C 215.72 961.96 216.77 960.03 218.06 958.37 C 220.25 960.14 222.30 962.08 224.26 964.12 C 222.99 964.78 221.63 965.22 220.20 965.45 C 219.80 975.32 220.33 985.21 219.95 995.07 C 218.51 998.01 214.80 997.12 212.16 997.14 C 212.01 986.68 212.42 976.20 212.00 965.75 L 210.98 965.39 L 209.85 965.85 C 209.32 970.54 210.24 975.35 208.97 979.96 C 208.09 986.85 204.40 993.62 198.34 997.22 C 198.44 996.36 198.63 994.64 198.73 993.78 C 195.96 995.54 193.23 997.59 189.75 997.43 C 189.37 995.94 189.03 994.44 188.52 993.01 C 187.79 991.36 186.11 990.48 184.84 989.33 C 186.64 989.14 188.44 988.99 190.24 988.86 C 190.63 985.38 190.53 981.87 190.33 978.39 C 189.72 978.72 188.51 979.37 187.91 979.69 L 187.01 979.32 C 185.83 977.05 183.95 974.47 184.51 971.84 C 186.49 970.87 188.62 970.25 190.66 969.42 C 190.53 966.18 190.51 962.95 190.48 959.73 C 188.71 959.58 186.94 959.49 185.17 959.40 C 183.95 966.30 182.07 973.10 181.41 980.10 C 180.89 984.58 184.46 988.45 183.58 992.98 C 183.33 997.09 177.57 999.12 174.86 996.02 C 174.17 991.80 175.55 987.46 174.64 983.25 C 173.84 981.85 172.33 981.08 171.15 980.07 C 172.04 979.93 173.81 979.67 174.70 979.53 C 176.44 975.65 178.43 971.81 179.15 967.58 C 177.44 967.74 175.35 968.43 174.03 966.91 C 172.55 963.89 171.31 960.76 170.29 957.58 C 172.49 957.98 174.80 958.20 176.80 959.27 C 178.55 960.19 179.39 962.26 181.17 963.11 C 182.76 960.47 183.43 957.43 184.20 954.51 C 182.10 954.93 179.96 954.80 177.91 954.23 C 177.04 950.83 175.31 947.74 174.23 944.41 C 178.64 944.70 184.77 946.59 184.92 951.93 C 185.28 952.36 186.01 953.22 186.38 953.65 C 186.24 954.58 185.96 956.44 185.82 957.38 C 187.37 957.32 188.93 957.27 190.49 957.22 M 198.42 959.90 C 198.43 962.19 198.44 964.47 198.44 966.77 C 199.29 966.66 201.01 966.43 201.87 966.31 C 201.86 964.10 201.87 961.90 201.87 959.71 C 201.01 959.76 199.29 959.86 198.42 959.90 M 198.41 971.22 C 198.40 978.29 198.39 985.35 198.41 992.42 C 200.55 991.06 200.45 988.22 200.92 986.03 C 202.06 980.06 202.01 973.98 201.87 967.94 C 200.72 969.03 199.57 970.12 198.41 971.22 Z" />
<path fill="#221e1c" stroke="#221e1c" stroke-width="0.09375" opacity="0.69" d=" M 360.36 944.29 C 363.94 944.36 367.51 944.60 371.09 944.74 C 369.51 949.96 369.79 955.53 369.16 960.91 C 372.68 961.00 376.24 961.40 379.74 960.83 C 381.55 959.03 383.03 956.93 384.88 955.16 C 387.69 957.57 391.26 959.29 393.13 962.64 C 385.42 962.97 377.69 962.83 369.96 962.92 C 370.09 964.96 370.26 967.08 371.25 968.94 C 373.78 974.30 377.28 979.45 382.35 982.69 C 385.90 985.10 390.02 986.50 393.56 988.95 C 391.76 989.98 389.70 990.76 388.34 992.40 C 387.33 993.79 386.82 995.46 385.93 996.94 C 383.66 996.94 382.19 994.73 380.59 993.40 C 374.33 987.31 371.46 978.83 369.17 970.63 C 368.03 971.41 367.17 972.49 366.78 973.83 C 364.73 979.30 361.66 984.57 357.05 988.28 C 352.15 992.47 346.33 995.45 340.25 997.51 C 340.17 995.73 341.91 994.99 343.03 994.03 C 347.19 990.99 351.07 987.41 353.78 982.98 C 357.32 976.91 359.30 970.02 359.86 963.04 C 353.34 962.57 346.78 963.34 340.29 962.61 C 340.30 962.30 340.30 961.70 340.31 961.39 C 346.80 960.62 353.37 961.43 359.89 960.94 C 360.22 955.39 359.96 949.83 360.36 944.29 Z" />
<path fill="#221e1c" stroke="#221e1c" stroke-width="0.09375" opacity="0.69" d=" M 445.89 943.84 C 450.10 944.51 455.08 946.36 456.20 950.99 C 456.98 953.20 454.52 954.65 453.53 956.30 C 454.30 956.15 455.86 955.86 456.63 955.71 C 458.95 952.15 459.97 947.95 461.49 944.03 C 464.86 944.67 468.03 946.00 471.22 947.25 C 468.09 950.70 463.72 952.73 460.62 956.23 C 462.47 956.31 464.36 956.55 466.19 956.15 C 467.99 955.11 469.40 953.55 470.98 952.23 C 473.39 954.48 475.79 956.77 478.17 959.08 C 475.00 961.17 471.49 962.66 468.01 964.16 C 468.08 964.93 468.23 966.46 468.30 967.22 C 464.11 969.64 458.66 970.00 455.48 973.96 C 455.50 974.70 455.53 976.18 455.55 976.91 C 458.95 977.04 462.36 977.03 465.77 976.87 C 467.11 975.25 468.11 973.12 470.01 972.11 C 473.14 973.29 475.47 975.98 477.94 978.17 C 476.35 978.77 474.73 979.40 473.00 979.29 C 467.24 979.23 461.47 979.33 455.72 979.15 C 455.29 982.78 455.64 986.43 455.42 990.08 C 455.29 992.73 453.41 995.15 451.01 996.22 C 448.82 997.26 446.33 997.20 443.97 997.40 C 443.23 995.25 442.81 992.75 441.02 991.19 C 439.44 990.21 437.59 989.86 435.87 989.25 C 436.15 989.02 436.69 988.57 436.96 988.34 C 440.10 988.04 443.26 988.36 446.41 988.24 C 446.41 985.34 446.43 982.45 446.56 979.56 C 439.54 978.58 432.26 980.15 425.34 978.70 C 425.31 978.36 425.24 977.68 425.21 977.34 C 432.19 976.43 439.29 977.14 446.33 976.97 C 446.41 975.19 446.50 973.40 446.60 971.64 C 448.53 971.58 450.52 971.88 452.43 971.43 C 454.04 969.91 455.08 967.92 456.20 966.05 C 449.16 965.77 442.11 966.04 435.07 965.86 C 435.08 965.45 435.10 964.61 435.11 964.20 C 441.75 963.99 448.39 964.18 455.03 964.12 C 457.80 964.38 459.05 961.39 461.26 960.34 C 462.68 960.34 463.77 961.59 465.07 962.09 C 465.61 960.98 465.98 959.82 466.18 958.60 C 455.39 958.41 444.60 958.43 433.81 958.54 C 433.68 961.26 433.75 964.46 431.47 966.40 C 430.22 967.17 428.55 968.09 427.08 967.45 C 425.28 967.05 424.50 965.28 423.49 963.98 C 424.71 961.77 426.57 960.09 428.35 958.36 C 430.14 956.80 430.25 954.27 430.88 952.15 C 431.93 953.27 432.78 954.58 433.22 956.08 C 434.51 956.18 435.80 956.28 437.10 956.38 C 436.44 952.21 434.75 948.35 432.78 944.66 C 436.74 944.74 441.26 945.92 443.63 949.35 C 445.03 951.55 443.84 954.16 443.02 956.36 C 445.62 956.33 448.23 956.32 450.83 956.16 C 449.81 955.43 448.80 954.71 447.80 954.01 C 447.70 950.52 446.68 947.20 445.89 943.84 Z" />
<path fill="#221e1c" stroke="#221e1c" stroke-width="0.09375" opacity="0.69" d=" M 531.07 944.95 C 531.61 943.25 533.75 943.98 535.04 944.01 C 537.49 944.28 539.95 944.54 542.41 944.84 C 541.61 945.54 540.82 946.24 540.03 946.96 C 539.90 950.33 539.88 953.72 540.03 957.10 C 543.29 957.30 546.56 957.29 549.83 957.05 C 551.18 955.20 552.58 953.40 553.97 951.59 C 556.99 953.41 559.67 955.72 562.28 958.09 C 561.30 958.73 560.33 959.59 559.06 959.42 C 552.71 959.58 546.34 959.11 540.00 959.63 C 539.91 963.91 539.90 968.21 539.97 972.50 C 541.91 972.55 543.85 972.58 545.79 972.58 C 547.12 971.11 548.48 969.69 549.87 968.30 C 552.53 970.32 555.33 972.19 557.72 974.56 C 557.23 974.96 556.24 975.78 555.74 976.19 C 555.03 982.30 555.86 988.52 555.38 994.67 C 553.35 997.12 549.47 996.64 546.61 997.18 C 546.37 995.56 546.94 993.64 545.89 992.26 C 539.03 991.87 532.14 992.11 525.28 992.17 C 525.26 992.86 525.22 994.26 525.20 994.95 C 522.59 996.94 519.35 997.67 516.13 997.24 C 516.24 988.10 515.95 978.96 516.25 969.83 C 518.43 969.33 520.42 970.82 522.41 971.49 C 525.03 972.80 527.99 972.65 530.83 972.71 C 531.01 968.31 530.92 963.91 530.95 959.52 C 524.09 959.24 517.22 959.44 510.36 959.38 C 510.34 958.86 510.29 957.83 510.27 957.31 C 517.15 957.11 524.04 957.40 530.93 957.10 C 531.03 953.05 530.72 948.98 531.07 944.95 M 525.68 975.13 C 525.37 979.98 525.50 984.85 525.53 989.72 C 532.25 989.81 538.97 989.84 545.69 989.69 C 545.72 984.81 545.82 979.93 545.64 975.05 C 538.98 975.17 532.33 975.04 525.68 975.13 Z" />
<path fill="#221e1c" stroke="#221e1c" stroke-width="0.09375" opacity="0.69" d=" M 698.87 943.68 C 702.66 943.21 707.09 943.72 709.53 947.03 C 709.82 948.67 709.08 950.26 708.68 951.84 C 711.47 951.76 714.28 951.92 717.08 951.70 C 718.95 950.22 720.22 948.13 721.85 946.40 C 724.20 948.71 727.57 950.21 728.93 953.36 C 725.26 953.57 721.58 953.43 717.92 953.59 C 719.03 954.68 720.29 955.70 721.55 956.68 C 717.95 959.13 713.86 961.35 711.45 965.11 C 713.97 965.25 716.51 965.26 719.05 965.26 C 720.66 963.59 721.69 961.02 723.87 960.08 C 726.71 961.64 728.98 964.04 731.35 966.22 C 727.77 967.75 723.77 966.83 720.00 967.08 C 706.27 966.89 692.52 967.42 678.80 966.80 C 679.00 966.46 679.39 965.78 679.58 965.45 C 684.36 964.94 689.19 965.36 694.00 965.24 C 693.24 961.34 692.56 957.40 690.99 953.74 C 687.68 953.53 684.36 953.58 681.05 953.38 L 681.85 951.96 C 688.56 951.41 695.31 951.98 702.04 951.72 C 701.24 948.93 700.14 946.26 698.87 943.68 M 696.92 954.15 C 698.44 955.53 700.16 956.78 701.34 958.51 C 702.30 960.64 701.42 962.99 700.47 964.97 C 702.87 964.85 705.27 964.81 707.68 964.79 C 708.90 961.24 710.11 957.66 710.63 953.93 C 706.06 953.78 701.48 953.88 696.92 954.15 Z" />
<path fill="#221e1c" stroke="#221e1c" stroke-width="0.09375" opacity="0.69" d=" M 784.04 949.23 C 790.82 947.54 797.81 946.32 804.18 943.35 C 807.18 945.55 809.73 948.30 811.96 951.28 C 808.17 951.40 804.39 951.26 800.61 951.40 C 794.05 951.53 787.51 952.55 780.94 952.08 C 779.78 957.23 778.79 962.43 777.84 967.63 C 781.00 967.67 784.16 967.67 787.34 967.62 C 787.39 963.06 787.41 958.51 787.33 953.96 C 790.72 953.80 794.07 954.35 797.41 954.88 C 795.18 958.79 796.46 963.47 796.23 967.75 C 798.70 967.75 801.18 967.73 803.66 967.73 C 805.06 965.92 806.48 964.13 807.92 962.37 C 810.84 964.36 813.88 966.31 816.08 969.16 C 814.43 969.69 812.74 970.16 811.01 970.08 C 806.05 970.05 801.10 970.03 796.15 970.08 C 796.14 976.72 796.19 983.36 796.17 990.00 C 796.39 993.14 794.05 996.19 791.00 996.89 C 789.26 997.27 787.50 997.46 785.77 997.71 C 785.07 995.94 784.62 994.04 783.48 992.50 C 782.13 991.16 779.86 991.08 778.84 989.37 C 781.67 989.25 784.50 989.34 787.34 989.27 C 787.57 982.86 787.42 976.46 787.42 970.06 C 783.95 970.09 780.46 969.82 777.01 970.26 C 776.25 971.05 775.55 971.89 774.90 972.78 C 772.54 971.79 770.26 970.65 767.99 969.50 C 770.83 962.66 771.50 955.22 772.91 948.02 C 776.64 948.24 780.28 950.27 784.04 949.23 Z" />
<path fill="#221e1c" stroke="#221e1c" stroke-width="0.09375" opacity="0.69" d=" M 851.78 959.81 C 852.38 954.37 851.14 948.79 852.52 943.46 C 855.43 943.88 858.35 944.35 861.28 944.74 C 858.55 948.71 860.17 953.80 859.83 958.29 C 860.92 957.52 862.01 956.74 863.07 955.94 C 863.52 956.14 864.43 956.54 864.88 956.74 C 867.23 955.94 869.73 955.78 872.21 955.79 C 872.33 951.96 872.01 948.12 872.44 944.33 L 872.92 943.82 C 876.22 943.60 879.46 944.54 882.75 944.75 C 880.23 947.93 880.75 952.16 880.80 955.96 C 881.61 955.92 883.24 955.85 884.05 955.81 C 885.97 955.01 887.06 952.92 889.02 952.13 C 891.47 953.69 893.47 955.82 895.47 957.91 C 894.64 958.52 893.82 959.14 893.02 959.78 C 893.03 960.60 893.05 962.25 893.07 963.08 C 896.82 965.65 901.68 968.86 901.39 974.04 C 901.60 975.96 899.98 977.24 899.01 978.66 C 896.84 978.26 894.71 977.78 892.57 977.37 C 891.98 982.52 892.82 988.17 889.80 992.73 C 888.06 996.17 883.86 997.49 880.24 997.11 C 879.96 995.35 880.01 993.49 879.11 991.93 C 877.83 990.51 876.02 989.71 874.68 988.36 C 876.97 988.04 879.56 988.88 881.67 987.76 C 883.60 985.71 883.78 982.63 884.04 979.98 C 884.31 972.73 884.73 965.49 884.79 958.24 C 883.61 958.20 882.43 958.18 881.27 958.16 C 880.72 962.44 880.91 966.81 879.90 971.03 C 878.63 976.72 877.19 982.70 873.26 987.21 C 869.92 991.29 866.18 995.56 860.95 997.12 C 861.85 993.99 864.26 991.71 865.82 988.95 C 867.84 985.29 869.53 981.36 869.93 977.17 C 868.41 978.25 867.06 980.05 865.00 979.92 C 863.03 980.02 861.62 978.46 860.21 977.36 C 860.35 983.03 860.13 988.72 860.37 994.40 C 858.38 997.04 855.12 997.45 852.04 997.39 C 851.74 985.55 852.05 973.71 851.88 961.87 C 850.33 961.76 848.80 961.68 847.27 961.61 C 847.35 961.10 847.49 960.07 847.57 959.55 C 848.96 959.63 850.36 959.72 851.78 959.81 M 868.05 958.08 C 868.21 958.94 868.53 960.67 868.69 961.54 C 865.86 961.65 863.04 961.79 860.23 961.97 C 860.24 966.31 860.23 970.65 860.19 975.00 C 863.64 971.96 866.41 968.08 867.00 963.42 C 870.33 964.76 869.99 969.32 870.58 972.31 C 870.84 972.50 871.36 972.87 871.63 973.05 C 871.50 968.11 871.85 963.19 871.80 958.26 C 870.54 958.18 869.29 958.12 868.05 958.08 Z" />
<path fill="#221e1c" stroke="#221e1c" stroke-width="0.09375" opacity="0.69" d=" M 938.76 963.76 C 945.29 958.27 950.68 951.35 953.75 943.34 C 957.41 944.17 961.00 945.29 964.71 945.97 C 964.18 946.91 962.12 948.25 963.60 949.34 C 969.76 955.25 978.22 957.56 986.20 959.87 C 983.67 962.23 980.72 964.43 979.85 968.00 C 977.84 967.07 975.96 965.92 973.95 965.03 C 971.97 965.44 970.06 966.32 968.01 966.24 C 962.00 966.22 956.00 966.14 950.00 966.23 C 947.84 966.38 945.82 965.67 943.80 965.11 C 939.68 966.47 936.14 969.37 931.75 970.05 C 933.88 967.73 936.35 965.77 938.76 963.76 M 960.56 949.70 C 956.76 955.55 951.04 959.77 945.59 963.98 C 951.12 964.01 956.64 963.96 962.17 964.00 C 963.25 962.62 964.28 961.20 965.30 959.78 C 966.72 960.12 968.07 960.70 969.40 961.37 C 965.71 958.07 963.07 953.90 960.56 949.70 Z" />
<path fill="#221e1c" stroke="#221e1c" stroke-width="0.09375" opacity="0.69" d=" M 259.76 945.04 C 264.29 945.22 269.80 945.96 271.79 950.73 C 279.86 950.24 287.94 950.64 296.02 950.52 C 297.57 948.58 299.17 946.68 300.90 944.91 C 303.28 946.94 305.68 948.96 308.06 951.00 C 306.93 952.75 304.71 952.16 303.00 952.33 C 299.77 952.29 296.55 952.33 293.33 952.51 C 292.97 965.42 293.40 978.36 293.10 991.28 C 294.46 991.35 295.83 991.41 297.20 991.48 C 298.80 989.74 299.80 987.04 302.01 986.09 C 305.03 987.50 307.16 990.40 309.91 992.30 C 306.88 994.05 303.31 993.26 300.00 993.42 C 289.87 993.24 279.75 993.67 269.63 993.24 C 268.59 994.93 267.28 996.93 265.08 997.09 C 263.19 997.46 261.24 996.65 260.22 995.03 C 259.87 991.05 261.20 987.02 260.24 983.09 C 259.44 981.53 257.82 980.68 256.66 979.46 C 258.00 979.20 259.33 978.89 260.65 978.53 C 263.60 974.39 265.55 969.64 268.14 965.29 C 270.53 961.50 272.02 957.19 274.85 953.69 C 274.67 955.50 274.58 957.36 273.94 959.10 C 272.01 964.48 270.24 969.92 268.51 975.38 C 267.77 978.11 266.71 981.13 267.92 983.92 C 268.89 986.40 269.49 989.11 270.77 991.44 C 275.27 991.63 279.77 991.38 284.27 991.45 C 284.31 978.46 284.34 965.47 284.26 952.48 C 280.15 952.56 276.06 952.30 271.96 952.34 C 270.76 953.54 270.09 955.79 267.99 955.56 C 266.53 955.57 264.53 955.74 264.00 953.98 C 262.62 950.98 261.20 948.00 259.76 945.04 Z" />
<path fill="#221e1c" stroke="#221e1c" stroke-width="0.09375" opacity="0.69" d=" M 610.69 944.65 C 613.65 944.62 616.61 944.92 619.48 945.71 C 618.64 948.08 618.25 950.61 618.72 953.11 C 619.20 953.33 620.16 953.76 620.64 953.98 C 620.92 951.04 620.28 947.92 621.29 945.14 C 623.83 943.90 626.95 945.31 629.68 945.57 C 628.38 948.16 628.44 951.06 628.75 953.87 C 629.47 953.84 630.92 953.79 631.65 953.76 C 632.73 952.46 633.68 950.99 635.09 950.03 C 638.07 950.84 640.29 953.25 642.85 954.89 C 642.39 955.38 641.46 956.36 641.00 956.85 C 641.04 963.31 641.03 969.77 641.01 976.24 C 644.34 976.36 646.85 979.46 647.89 982.39 C 635.84 982.71 623.77 982.49 611.71 982.55 C 612.74 985.75 617.09 985.54 619.13 987.95 C 618.07 989.09 616.22 989.08 614.90 989.91 C 608.49 993.67 601.37 996.45 593.92 997.11 C 595.91 994.54 599.11 993.49 601.51 991.40 C 604.49 988.89 607.77 986.36 609.28 982.64 C 603.77 982.21 598.19 983.16 592.73 982.10 C 594.49 980.05 597.29 980.83 599.62 980.63 C 599.67 970.78 599.66 960.94 599.63 951.10 C 603.42 951.61 606.76 953.92 610.66 953.85 C 610.63 950.77 610.62 947.71 610.69 944.65 M 618.45 956.97 C 618.50 960.20 618.52 963.44 618.52 966.68 C 619.08 966.71 620.20 966.77 620.76 966.81 C 620.81 963.00 620.96 959.18 620.52 955.40 C 619.82 955.91 619.13 956.43 618.45 956.97 M 608.24 956.37 C 607.53 959.83 607.88 963.39 608.17 966.89 C 608.75 966.75 609.92 966.47 610.51 966.33 C 610.46 962.80 610.47 959.28 610.33 955.76 C 609.81 955.91 608.76 956.22 608.24 956.37 M 629.34 956.43 C 629.28 959.71 629.25 963.00 629.13 966.29 C 630.08 966.29 631.02 966.30 631.98 966.32 C 631.94 962.92 631.92 959.53 631.79 956.15 C 631.18 956.22 629.95 956.36 629.34 956.43 M 608.01 969.32 C 607.69 972.94 607.71 976.59 607.98 980.22 C 608.61 980.31 609.85 980.49 610.48 980.58 C 610.50 976.66 610.51 972.75 610.48 968.85 C 609.86 968.97 608.63 969.20 608.01 969.32 M 618.50 969.39 C 618.55 973.02 618.54 976.66 618.58 980.31 C 619.12 980.38 620.19 980.53 620.73 980.60 C 620.83 976.73 620.80 972.87 620.78 969.01 C 620.21 969.10 619.07 969.29 618.50 969.39 M 629.31 969.29 C 629.32 972.82 629.29 976.35 629.27 979.89 C 629.93 979.91 631.24 979.96 631.90 979.99 C 631.96 976.38 631.91 972.77 631.77 969.18 C 631.16 969.21 629.92 969.26 629.31 969.29 Z" />
<path fill="#221e1c" stroke="#221e1c" stroke-width="0.09375" opacity="0.69" d=" M 255.11 957.60 C 258.19 957.86 261.60 957.85 264.17 959.85 C 265.93 961.13 266.58 963.31 267.48 965.20 C 266.01 966.16 264.64 967.41 262.91 967.88 C 261.48 967.80 259.75 967.34 259.27 965.82 C 257.90 963.06 256.23 960.47 255.11 957.60 Z" />
<path fill="#221e1c" stroke="#221e1c" stroke-width="0.09375" opacity="0.69" d=" M 712.45 972.34 C 713.98 971.11 715.29 969.64 716.75 968.33 C 719.23 970.54 722.23 972.20 724.33 974.84 C 723.79 975.08 722.72 975.58 722.18 975.82 C 722.18 980.54 722.15 985.27 722.21 990.00 C 722.10 991.57 722.42 993.28 721.74 994.78 C 719.34 996.67 716.21 997.17 713.24 997.13 C 713.12 995.78 713.02 994.44 712.92 993.12 C 707.68 993.05 702.45 993.04 697.22 993.11 C 696.70 994.03 696.18 994.97 695.68 995.92 C 693.32 997.04 690.72 997.38 688.13 997.33 C 687.98 988.09 688.11 978.85 688.07 969.62 C 692.20 970.08 695.72 973.05 700.00 972.58 C 704.14 972.41 708.34 972.90 712.45 972.34 M 697.06 974.76 C 696.98 976.94 696.94 979.12 696.99 981.32 C 702.21 981.28 707.46 981.64 712.67 981.04 C 712.64 979.04 712.63 977.04 712.68 975.06 C 707.50 974.38 702.26 974.88 697.06 974.76 M 697.13 983.97 C 697.10 986.22 697.13 988.48 697.20 990.75 C 702.18 990.71 707.17 990.66 712.15 990.79 C 712.49 988.50 712.45 986.18 712.26 983.90 C 707.21 983.90 702.17 983.82 697.13 983.97 Z" />
<path fill="#221e1c" stroke="#221e1c" stroke-width="0.09375" opacity="0.69" d=" M 971.64 973.63 C 973.11 971.89 974.59 970.15 976.09 968.42 C 978.71 970.23 981.37 972.06 983.63 974.35 L 983.24 975.10 C 980.92 975.84 978.40 975.37 976.01 975.50 C 970.07 975.59 964.13 975.26 958.21 975.70 C 959.58 977.29 961.23 978.60 962.86 979.94 C 959.35 981.77 956.12 984.10 952.47 985.65 C 950.79 986.32 949.20 987.20 947.85 988.41 C 955.11 988.59 962.38 988.60 969.65 988.36 C 968.07 985.56 966.00 983.11 964.10 980.56 C 970.57 980.60 977.25 983.90 980.71 989.49 C 981.78 991.52 982.19 994.58 980.20 996.20 C 978.97 997.60 976.75 997.42 975.19 996.82 C 973.29 995.25 973.08 992.25 971.00 990.92 C 966.54 991.08 962.28 992.65 957.89 993.33 C 952.21 994.60 946.26 994.85 940.84 997.12 C 940.03 994.23 937.75 991.31 938.39 988.28 C 941.00 986.61 944.00 985.48 946.17 983.16 C 948.39 980.85 951.25 978.76 952.04 975.49 C 946.41 975.43 940.79 975.57 935.17 975.40 L 935.13 973.68 C 947.30 973.54 959.47 973.70 971.64 973.63 Z" />
<path fill="#221e1c" stroke="#221e1c" stroke-width="0.09375" opacity="0.69" d=" M 775.31 972.98 C 778.73 974.01 782.13 975.35 784.93 977.63 C 783.48 978.52 782.14 979.60 781.11 980.97 C 776.47 986.90 770.18 991.62 762.96 993.91 C 764.06 990.66 766.92 988.56 768.77 985.79 C 771.63 981.90 773.72 977.52 775.31 972.98 Z" />
<path fill="#221e1c" stroke="#221e1c" stroke-width="0.09375" opacity="0.69" d=" M 797.95 973.21 C 804.48 974.28 811.15 977.48 814.78 983.21 C 816.42 985.85 817.16 990.35 814.02 992.19 C 812.29 993.69 810.14 992.26 808.34 991.74 C 805.89 985.03 801.90 979.10 797.95 973.21 Z" />
<path fill="#221e1c" stroke="#221e1c" stroke-width="0.09375" opacity="0.69" d=" M 623.79 985.63 C 625.19 985.34 626.60 984.88 628.06 985.10 C 633.38 985.68 639.00 986.34 643.48 989.55 C 645.11 990.69 646.32 992.91 645.31 994.87 C 644.44 997.50 641.22 997.44 638.99 997.13 C 637.06 996.51 636.05 994.62 634.73 993.27 C 631.80 989.81 627.55 987.98 623.79 985.63 Z" />
<path fill="#221e1c" stroke="#221e1c" stroke-width="0.09375" opacity="0.69" d=" M 242.30 1033.43 C 244.44 1032.80 246.74 1036.14 244.63 1037.65 C 243.68 1039.05 241.51 1038.52 240.51 1037.45 C 239.49 1035.98 240.45 1033.55 242.30 1033.43 Z" />
<path fill="#221e1c" stroke="#221e1c" stroke-width="0.09375" opacity="0.69" d=" M 494.21 1033.25 C 495.26 1033.48 496.76 1033.75 497.05 1035.01 C 498.06 1036.93 495.85 1038.86 493.98 1038.52 C 492.91 1037.79 491.93 1036.95 491.05 1036.02 C 492.04 1035.04 492.89 1033.82 494.21 1033.25 Z" />
<path fill="#221e1c" stroke="#221e1c" stroke-width="0.09375" opacity="0.69" d=" M 576.46 1034.63 C 578.86 1034.06 581.29 1033.58 583.73 1033.17 C 583.86 1040.85 583.78 1048.53 583.75 1056.22 C 584.40 1057.01 585.07 1057.84 585.74 1058.67 C 582.88 1058.85 580.01 1058.79 577.15 1058.66 C 577.84 1057.53 578.92 1056.47 578.67 1055.04 C 578.64 1048.90 578.82 1042.74 578.57 1036.60 C 578.04 1036.11 576.99 1035.13 576.46 1034.63 Z" />
<path fill="#221e1c" stroke="#221e1c" stroke-width="0.09375" opacity="0.69" d=" M 651.47 1036.04 C 651.64 1034.24 653.57 1032.74 655.30 1033.58 C 656.13 1034.30 656.90 1035.11 657.61 1035.99 C 656.84 1036.87 656.01 1037.70 655.12 1038.46 C 653.41 1038.79 651.79 1037.74 651.47 1036.04 Z" />
<path fill="#221e1c" stroke="#221e1c" stroke-width="0.09375" opacity="0.69" d=" M 920.41 1036.04 C 920.80 1034.36 922.55 1032.72 924.34 1033.55 C 925.17 1034.30 925.98 1035.11 926.75 1035.97 C 925.93 1036.86 925.04 1037.68 924.09 1038.42 C 922.37 1038.78 920.90 1037.58 920.41 1036.04 Z" />
<path fill="#221e1c" stroke="#221e1c" stroke-width="0.09375" opacity="0.69" d=" M 192.59 1034.56 C 194.86 1034.09 197.12 1033.61 199.39 1033.14 C 200.63 1036.08 200.17 1039.28 200.00 1042.38 C 202.04 1042.39 203.92 1041.35 205.96 1041.36 C 208.45 1041.39 210.16 1043.79 210.60 1046.04 C 211.13 1050.24 210.00 1054.64 211.65 1058.69 C 209.22 1058.74 206.80 1058.77 204.37 1058.78 C 205.28 1054.26 205.44 1049.54 204.71 1045.01 C 203.89 1043.29 201.62 1044.54 200.29 1044.87 C 200.32 1049.51 199.98 1054.17 200.72 1058.79 C 198.15 1058.79 195.58 1058.75 193.02 1058.60 C 193.54 1057.82 194.05 1057.05 194.57 1056.29 C 194.37 1049.74 194.77 1043.18 194.40 1036.65 C 193.95 1036.13 193.05 1035.08 192.59 1034.56 Z" />
<path fill="#221e1c" stroke="#221e1c" stroke-width="0.09375" opacity="0.69" d=" M 253.88 1036.00 C 253.82 1034.22 255.63 1033.33 257.16 1033.29 C 258.19 1034.14 259.19 1035.05 260.15 1036.02 C 259.20 1036.91 258.20 1037.75 257.15 1038.55 C 255.77 1038.43 253.71 1037.72 253.88 1036.00 Z" />
<path fill="#221e1c" stroke="#221e1c" stroke-width="0.09375" opacity="0.69" d=" M 400.13 1038.00 C 397.94 1036.99 398.82 1033.83 401.00 1033.46 C 402.95 1032.77 403.84 1034.96 404.94 1036.07 C 403.71 1037.33 402.09 1039.47 400.13 1038.00 Z" />
<path fill="#221e1c" stroke="#221e1c" stroke-width="0.09375" opacity="0.69" d=" M 705.81 1034.57 C 708.20 1034.08 710.60 1033.37 713.07 1033.43 C 713.27 1033.83 713.66 1034.62 713.85 1035.02 C 713.37 1039.66 713.47 1044.33 713.50 1049.00 C 713.57 1052.23 712.99 1055.74 714.76 1058.67 C 712.21 1058.75 709.67 1058.79 707.14 1058.77 C 708.33 1055.29 707.90 1051.59 707.95 1047.99 C 707.95 1044.12 707.99 1040.24 707.89 1036.38 C 707.18 1035.77 706.49 1035.17 705.81 1034.57 Z" />
<path fill="#221e1c" stroke="#221e1c" stroke-width="0.09375" opacity="0.69" d=" M 809.20 1035.15 C 810.29 1032.78 813.68 1032.88 814.77 1035.21 C 815.39 1037.19 813.24 1037.92 812.02 1038.88 C 810.71 1037.89 808.41 1037.23 809.20 1035.15 Z" />
<path fill="#221e1c" stroke="#221e1c" stroke-width="0.09375" opacity="0.69" d=" M 170.87 1035.82 C 176.23 1035.37 181.72 1035.27 187.07 1035.86 L 187.55 1036.89 C 184.26 1043.98 179.03 1050.05 176.17 1057.34 C 178.77 1057.33 181.37 1057.29 183.97 1057.25 C 184.87 1055.19 184.66 1051.57 187.78 1051.95 C 187.84 1054.19 187.83 1056.45 187.75 1058.71 C 181.52 1058.43 175.24 1059.23 169.05 1058.40 C 172.44 1051.65 176.90 1045.50 180.40 1038.82 C 180.45 1038.25 180.55 1037.13 180.60 1036.56 C 178.15 1036.64 175.53 1036.41 173.42 1037.90 C 172.87 1039.39 172.43 1043.97 169.97 1042.14 C 169.69 1040.00 169.94 1037.76 170.87 1035.82 Z" />
<path fill="#221e1c" stroke="#221e1c" stroke-width="0.09375" opacity="0.69" d=" M 344.93 1035.61 C 348.58 1035.52 352.23 1035.55 355.88 1035.69 C 355.12 1036.54 353.55 1036.98 353.48 1038.30 C 353.08 1043.39 353.07 1048.54 353.58 1053.62 C 354.63 1057.06 359.79 1057.57 362.05 1055.07 C 363.36 1053.34 363.34 1051.05 363.43 1049.00 C 363.45 1045.38 363.43 1041.76 363.26 1038.16 C 362.39 1037.32 361.55 1036.48 360.76 1035.60 C 363.19 1035.53 365.62 1035.55 368.05 1035.53 C 363.07 1040.70 367.07 1048.48 364.39 1054.55 C 362.16 1061.03 351.69 1061.30 348.63 1055.40 C 347.36 1053.51 347.52 1051.15 347.45 1049.00 C 347.44 1045.34 347.47 1041.69 347.35 1038.04 C 346.53 1037.21 345.73 1036.42 344.93 1035.61 Z" />
<path fill="#221e1c" stroke="#221e1c" stroke-width="0.09375" opacity="0.69" d=" M 553.68 1040.67 C 557.11 1034.70 565.59 1033.56 571.31 1036.75 C 571.19 1038.90 571.07 1041.07 570.84 1043.23 C 568.07 1042.30 568.07 1039.03 567.16 1036.73 C 564.67 1036.84 561.57 1036.65 560.02 1039.03 C 557.04 1043.32 556.76 1049.26 559.02 1053.94 C 560.09 1057.07 563.99 1058.30 566.96 1058.05 C 568.75 1056.10 567.90 1052.05 571.20 1051.72 C 571.25 1053.83 571.27 1055.95 571.29 1058.08 C 566.58 1060.02 560.94 1060.19 556.55 1057.37 C 551.60 1053.58 550.15 1045.88 553.68 1040.67 Z" />
<path fill="#221e1c" stroke="#221e1c" stroke-width="0.09375" opacity="0.69" d=" M 751.98 1035.84 C 754.28 1035.39 756.65 1035.57 758.99 1035.48 C 758.28 1036.89 757.52 1038.34 757.62 1039.99 C 757.50 1045.46 757.75 1050.94 757.51 1056.42 C 758.09 1056.89 759.26 1057.82 759.84 1058.29 C 756.24 1059.16 752.49 1058.84 748.85 1058.50 C 749.71 1057.75 750.68 1057.15 751.71 1056.64 C 751.65 1052.30 752.04 1047.94 751.42 1043.63 C 748.86 1045.50 748.70 1048.91 747.46 1051.60 C 746.34 1053.97 746.19 1057.17 744.04 1058.84 L 742.83 1058.45 C 740.57 1054.04 739.52 1049.12 737.26 1044.72 C 736.91 1044.46 736.19 1043.94 735.84 1043.68 C 735.69 1048.02 735.78 1052.38 735.83 1056.74 C 736.69 1057.05 738.42 1057.69 739.29 1058.00 C 736.57 1059.26 733.36 1059.20 730.63 1058.04 C 731.46 1057.72 733.10 1057.07 733.93 1056.75 C 733.92 1050.50 733.95 1044.25 733.95 1038.01 C 733.13 1037.25 732.31 1036.51 731.51 1035.77 C 734.09 1035.55 736.68 1035.52 739.27 1035.57 C 742.03 1040.24 742.49 1046.09 746.04 1050.29 C 748.39 1045.62 749.51 1040.43 751.98 1035.84 Z" />
<path fill="#221e1c" stroke="#221e1c" stroke-width="0.09375" opacity="0.69" d=" M 855.96 1036.95 C 859.48 1034.13 864.79 1034.53 868.50 1036.82 C 868.38 1038.61 868.28 1040.42 868.17 1042.24 C 865.58 1041.96 865.43 1039.32 864.58 1037.46 C 862.11 1035.17 856.98 1038.79 858.94 1041.96 C 860.65 1044.12 863.52 1044.79 865.78 1046.25 C 868.24 1047.54 870.06 1050.18 870.03 1053.01 C 869.50 1056.00 867.13 1058.72 864.06 1059.22 C 860.59 1060.17 857.06 1059.15 853.74 1058.17 C 853.85 1056.18 852.38 1052.72 855.08 1052.10 C 856.64 1053.44 856.37 1055.85 857.76 1057.32 C 859.62 1058.32 862.01 1057.82 863.77 1056.79 C 864.94 1055.30 865.16 1052.73 863.53 1051.49 C 861.20 1049.66 858.27 1048.82 855.97 1046.96 C 852.90 1044.59 852.83 1039.30 855.96 1036.95 Z" />
<path fill="#221e1c" stroke="#221e1c" stroke-width="0.09375" opacity="0.69" d=" M 507.56 1037.27 C 508.63 1037.21 509.71 1037.17 510.80 1037.15 C 510.83 1038.50 510.87 1039.87 510.91 1041.24 C 512.31 1041.57 513.70 1041.98 515.09 1042.41 C 513.42 1043.16 510.51 1043.45 510.87 1045.95 C 510.95 1049.60 510.19 1053.54 511.90 1056.95 C 512.75 1056.90 514.46 1056.78 515.31 1056.73 C 513.73 1060.42 507.85 1060.51 506.04 1056.94 C 505.25 1052.79 506.22 1048.52 505.57 1044.38 C 505.27 1043.99 504.66 1043.20 504.36 1042.80 C 506.15 1041.42 507.00 1039.38 507.56 1037.27 Z" />
<path fill="#221e1c" stroke="#221e1c" stroke-width="0.09375" opacity="0.69" d=" M 957.53 1037.23 C 958.57 1037.19 959.62 1037.18 960.69 1037.18 C 960.75 1038.64 960.91 1040.11 961.14 1041.59 C 962.65 1041.25 963.66 1041.73 964.18 1043.01 C 963.04 1043.29 961.92 1043.57 960.80 1043.87 C 960.90 1047.59 960.56 1051.34 960.94 1055.06 C 961.16 1057.27 963.82 1056.82 965.39 1056.88 C 963.43 1060.23 957.89 1060.51 955.97 1056.98 C 955.13 1052.84 956.15 1048.57 955.45 1044.45 C 955.18 1044.04 954.62 1043.20 954.34 1042.79 C 956.07 1041.36 956.93 1039.32 957.53 1037.23 Z" />
<path fill="#221e1c" stroke="#221e1c" stroke-width="0.09375" opacity="0.69" d=" M 217.17 1049.97 C 216.87 1043.80 224.42 1039.33 229.79 1042.12 C 232.39 1043.86 234.38 1047.16 233.26 1050.34 C 229.90 1050.38 226.55 1050.38 223.20 1050.32 C 223.24 1052.31 222.96 1054.83 224.98 1056.03 C 227.33 1057.84 230.25 1056.31 232.55 1055.28 C 232.19 1056.00 231.45 1057.43 231.09 1058.15 C 228.81 1058.84 226.44 1059.99 224.03 1059.23 C 219.77 1058.53 216.54 1054.26 217.17 1049.97 M 222.96 1048.84 C 224.60 1048.80 226.25 1048.78 227.91 1048.77 C 228.06 1046.88 228.57 1044.50 226.78 1043.21 C 223.38 1042.38 223.15 1046.52 222.96 1048.84 Z" />
<path fill="#221e1c" stroke="#221e1c" stroke-width="0.09375" opacity="0.69" d=" M 266.15 1046.19 C 268.19 1041.80 273.73 1040.21 278.03 1041.95 C 279.32 1042.86 280.66 1044.18 280.61 1045.91 C 280.85 1049.28 280.68 1052.66 280.70 1056.05 C 281.59 1056.68 282.47 1057.33 283.36 1058.00 C 282.73 1058.30 281.49 1058.90 280.86 1059.20 C 279.03 1060.13 277.44 1058.34 275.91 1057.64 C 273.55 1058.70 270.79 1060.37 268.28 1058.70 C 265.86 1057.86 266.01 1054.86 266.61 1052.87 C 268.79 1050.02 272.57 1049.43 275.80 1048.48 C 275.62 1046.59 276.22 1043.91 274.02 1042.99 C 273.37 1043.05 272.06 1043.16 271.40 1043.21 C 271.32 1044.51 271.25 1045.82 271.18 1047.14 C 269.37 1047.95 267.52 1047.68 266.15 1046.19 M 271.31 1053.35 C 271.10 1054.61 271.34 1056.06 272.73 1056.53 C 273.40 1056.39 274.75 1056.12 275.42 1055.99 C 275.47 1054.01 275.52 1052.03 275.54 1050.08 C 273.85 1050.71 272.13 1051.65 271.31 1053.35 Z" />
<path fill="#221e1c" stroke="#221e1c" stroke-width="0.09375" opacity="0.69" d=" M 437.09 1041.83 C 439.89 1040.90 443.52 1040.98 445.51 1043.48 C 447.41 1045.24 447.28 1047.94 447.36 1050.32 C 444.02 1050.46 440.67 1050.25 437.34 1050.47 C 435.99 1051.97 437.56 1054.14 438.52 1055.47 C 440.75 1058.03 444.18 1056.31 446.91 1055.81 C 443.87 1060.96 435.51 1060.42 432.54 1055.49 C 429.16 1050.85 431.78 1043.65 437.09 1041.83 M 439.21 1043.18 C 437.28 1044.28 437.44 1046.86 436.98 1048.76 C 438.63 1048.76 440.28 1048.76 441.93 1048.78 C 442.45 1046.69 442.35 1042.45 439.21 1043.18 Z" />
<path fill="#221e1c" stroke="#221e1c" stroke-width="0.09375" opacity="0.69" d=" M 471.37 1044.84 C 474.01 1041.40 478.91 1040.22 482.77 1042.26 C 485.11 1042.80 484.49 1047.41 482.07 1046.94 C 481.30 1045.70 480.89 1044.25 479.99 1043.13 C 478.24 1042.51 475.49 1043.65 476.19 1045.85 C 477.95 1047.98 481.15 1047.96 483.22 1049.76 C 485.96 1051.67 485.72 1056.20 482.95 1057.99 C 479.63 1060.21 474.72 1060.01 471.52 1057.70 C 471.06 1055.66 471.28 1052.94 474.16 1053.60 C 474.19 1054.44 474.25 1056.13 474.28 1056.98 C 475.82 1057.65 477.52 1058.40 479.11 1057.41 C 480.58 1057.11 481.15 1055.02 479.94 1054.11 C 477.58 1052.25 474.12 1052.16 472.09 1049.79 C 471.20 1048.31 471.64 1046.45 471.37 1044.84 Z" />
<path fill="#221e1c" stroke="#221e1c" stroke-width="0.09375" opacity="0.69" d=" M 530.64 1041.83 C 532.75 1041.62 534.86 1041.63 536.98 1041.74 C 530.72 1048.60 531.28 1059.08 525.03 1065.99 C 523.42 1067.63 520.29 1067.88 518.83 1065.90 C 517.49 1064.26 519.88 1063.15 520.87 1062.32 C 522.39 1063.12 523.92 1063.91 525.45 1064.71 C 526.36 1062.77 527.50 1060.56 526.42 1058.44 C 523.97 1052.87 522.04 1047.04 518.92 1041.79 C 521.57 1041.68 524.22 1041.67 526.88 1041.66 C 525.68 1045.74 527.71 1050.01 530.07 1053.28 C 531.34 1050.00 532.44 1046.65 532.96 1043.17 C 532.38 1042.84 531.22 1042.16 530.64 1041.83 Z" />
<path fill="#221e1c" stroke="#221e1c" stroke-width="0.09375" opacity="0.69" d=" M 591.24 1044.61 C 594.03 1041.65 598.30 1040.62 602.19 1041.72 C 603.71 1042.41 604.76 1043.96 605.25 1045.55 C 605.91 1049.19 605.08 1052.94 605.69 1056.60 C 606.27 1056.98 607.44 1057.74 608.02 1058.12 C 607.27 1058.43 605.78 1059.06 605.04 1059.37 C 603.12 1059.79 601.61 1058.23 600.03 1057.48 C 597.68 1059.70 594.42 1059.76 591.64 1058.36 C 591.31 1056.94 590.10 1055.49 590.81 1054.06 C 591.88 1050.42 596.11 1049.69 599.31 1049.02 C 598.03 1050.97 595.50 1052.51 595.75 1055.13 C 596.33 1056.83 598.24 1056.51 599.65 1056.78 C 599.94 1055.19 600.12 1053.59 599.96 1052.01 C 599.61 1049.11 600.45 1046.19 599.74 1043.33 C 598.59 1043.13 597.46 1042.95 596.33 1042.79 C 596.10 1044.54 596.21 1047.26 593.95 1047.70 C 592.01 1048.34 591.21 1046.11 591.24 1044.61 Z" />
<path fill="#221e1c" stroke="#221e1c" stroke-width="0.09375" opacity="0.69" d=" M 616.06 1041.90 C 619.13 1040.57 622.47 1041.61 625.37 1042.88 C 625.10 1044.34 625.78 1046.50 623.79 1046.92 C 622.64 1045.83 622.06 1044.31 621.15 1043.07 C 618.97 1042.57 616.12 1043.26 617.04 1046.12 C 619.24 1048.10 622.46 1048.56 625.07 1049.96 C 625.76 1051.77 627.04 1053.88 625.77 1055.78 C 623.70 1060.08 617.92 1060.08 614.02 1058.68 C 611.72 1058.19 611.99 1055.33 612.78 1053.70 C 615.23 1052.50 615.42 1055.92 616.01 1057.35 C 617.83 1057.38 620.57 1058.15 621.42 1055.89 C 620.48 1052.39 615.85 1052.72 613.67 1050.32 C 610.83 1047.81 612.74 1042.92 616.06 1041.90 Z" />
<path fill="#221e1c" stroke="#221e1c" stroke-width="0.09375" opacity="0.69" d=" M 632.53 1043.52 C 635.56 1040.36 640.46 1041.04 644.03 1042.83 C 644.06 1043.68 644.11 1045.39 644.14 1046.25 C 643.34 1046.40 642.55 1046.56 641.76 1046.74 C 640.86 1045.54 640.96 1042.75 639.01 1042.95 C 636.87 1042.29 634.33 1044.83 636.34 1046.66 C 638.87 1048.24 642.33 1048.40 644.22 1050.95 C 646.44 1053.73 644.26 1058.20 640.97 1058.92 C 637.83 1060.07 634.52 1059.26 631.45 1058.35 C 631.09 1056.71 631.13 1055.05 631.44 1053.44 C 631.91 1053.47 632.83 1053.53 633.30 1053.56 C 633.90 1055.00 634.51 1056.45 635.10 1057.92 C 636.84 1057.58 639.66 1058.19 640.39 1056.06 C 640.22 1052.98 636.48 1052.73 634.35 1051.57 C 630.96 1050.57 630.01 1045.88 632.53 1043.52 Z" />
<path fill="#221e1c" stroke="#221e1c" stroke-width="0.09375" opacity="0.69" d=" M 664.82 1045.97 C 667.15 1041.41 673.88 1039.69 677.87 1043.06 C 679.51 1044.20 680.51 1047.41 677.97 1048.13 C 675.15 1048.23 674.58 1045.12 674.58 1042.96 C 673.16 1043.12 671.41 1043.07 670.64 1044.55 C 668.54 1048.04 668.40 1053.56 672.00 1056.11 C 674.32 1057.82 677.10 1056.03 679.49 1055.48 C 677.16 1059.84 671.04 1060.60 667.21 1057.86 C 663.67 1055.17 662.39 1049.80 664.82 1045.97 Z" />
<path fill="#221e1c" stroke="#221e1c" stroke-width="0.09375" opacity="0.69" d=" M 689.15 1041.84 C 692.39 1040.95 697.15 1040.77 698.70 1044.47 C 699.94 1048.38 698.82 1052.56 699.34 1056.58 C 699.85 1056.87 700.88 1057.44 701.39 1057.73 C 699.47 1060.47 696.13 1059.35 694.00 1057.55 C 692.41 1058.30 690.87 1059.66 689.00 1059.42 C 687.82 1059.10 686.66 1058.76 685.52 1058.40 C 685.00 1056.70 683.72 1054.75 684.96 1053.07 C 686.87 1050.04 690.77 1049.54 693.90 1048.49 C 693.83 1047.06 693.86 1045.64 693.64 1044.26 C 693.38 1042.71 691.35 1043.11 690.27 1042.70 C 689.79 1044.26 690.17 1046.57 688.43 1047.45 C 687.35 1048.14 685.90 1047.81 685.23 1046.74 C 684.61 1044.26 687.18 1042.60 689.15 1041.84 M 689.71 1053.57 C 689.35 1054.83 690.38 1055.91 690.83 1057.03 C 691.80 1056.64 692.78 1056.25 693.77 1055.89 C 693.74 1053.86 693.71 1051.83 693.66 1049.83 C 692.07 1050.71 690.32 1051.74 689.71 1053.57 Z" />
<path fill="#221e1c" stroke="#221e1c" stroke-width="0.09375" opacity="0.69" d=" M 792.14 1042.11 C 795.08 1040.52 798.59 1041.49 801.45 1042.81 C 801.36 1044.35 801.26 1045.91 801.16 1047.48 C 798.21 1047.08 798.64 1041.80 795.17 1043.18 C 794.59 1043.61 793.41 1044.46 792.82 1044.89 C 795.03 1048.26 799.79 1048.01 802.12 1051.20 C 802.54 1052.74 802.37 1054.39 802.47 1056.00 C 801.08 1057.16 799.85 1058.69 798.00 1059.11 C 794.85 1060.25 791.64 1058.92 788.61 1058.10 C 788.70 1056.27 788.82 1054.42 789.89 1052.87 C 791.11 1054.21 791.85 1055.88 792.73 1057.47 C 794.42 1058.49 796.33 1057.34 798.01 1056.87 C 798.26 1051.48 790.64 1053.19 789.16 1048.90 C 787.81 1046.25 789.76 1043.30 792.14 1042.11 Z" />
<path fill="#221e1c" stroke="#221e1c" stroke-width="0.09375" opacity="0.69" d=" M 882.30 1041.39 C 889.00 1039.87 895.05 1047.91 892.01 1053.96 C 890.00 1059.96 881.35 1061.15 877.16 1056.83 C 875.61 1054.91 874.59 1052.47 874.70 1050.00 C 874.87 1045.83 878.09 1041.92 882.30 1041.39 M 883.13 1043.15 C 880.82 1044.35 880.82 1047.69 880.61 1050.01 C 880.68 1052.88 880.55 1057.25 884.22 1057.88 C 887.33 1055.31 886.49 1050.67 886.34 1047.11 C 886.09 1045.52 885.39 1042.34 883.13 1043.15 Z" />
<path fill="#221e1c" stroke="#221e1c" stroke-width="0.09375" opacity="0.69" d=" M 901.89 1042.71 C 905.80 1040.08 912.50 1041.13 913.82 1046.20 C 913.26 1047.17 912.31 1048.51 911.00 1048.06 C 908.78 1047.42 908.99 1044.83 908.55 1043.06 C 906.77 1042.91 904.88 1043.43 904.21 1045.27 C 902.70 1048.89 902.57 1054.34 906.57 1056.43 C 908.62 1057.66 910.90 1056.17 912.92 1055.64 C 910.72 1061.03 901.98 1060.44 899.24 1055.73 C 896.19 1051.63 897.63 1045.36 901.89 1042.71 Z" />
<path fill="#221e1c" stroke="#221e1c" stroke-width="0.09375" opacity="0.69" d=" M 980.58 1041.87 C 982.66 1041.66 984.78 1041.61 986.89 1041.74 C 980.43 1048.68 981.40 1059.68 974.45 1066.32 C 972.61 1068.32 967.63 1067.18 968.59 1063.95 C 969.17 1063.56 970.32 1062.78 970.89 1062.38 C 972.30 1063.11 973.73 1063.83 975.17 1064.57 C 975.74 1063.40 976.70 1062.38 976.85 1061.06 C 976.82 1059.17 975.91 1057.47 975.22 1055.78 C 973.11 1051.11 971.47 1046.22 968.88 1041.78 C 971.52 1041.67 974.17 1041.66 976.83 1041.66 C 976.64 1043.17 976.04 1044.77 976.66 1046.28 C 977.58 1048.67 977.99 1051.46 980.10 1053.18 C 981.14 1049.90 982.16 1046.61 982.94 1043.27 C 982.35 1042.92 981.17 1042.22 980.58 1041.87 Z" />
<path fill="#221e1c" stroke="#221e1c" stroke-width="0.09375" opacity="0.69" d=" M 238.46 1042.96 C 240.48 1042.56 242.47 1042.01 244.38 1041.26 C 246.49 1042.87 245.52 1045.74 245.72 1048.01 C 245.31 1053.32 246.87 1059.17 243.95 1064.01 C 241.76 1067.91 235.75 1068.47 232.86 1065.05 C 233.84 1064.11 234.84 1063.20 235.84 1062.30 C 237.26 1062.99 238.68 1063.70 240.10 1064.40 C 240.39 1058.59 240.26 1052.77 240.23 1046.97 C 240.41 1045.37 239.22 1044.18 238.46 1042.96 Z" />
<path fill="#221e1c" stroke="#221e1c" stroke-width="0.09375" opacity="0.69" d=" M 252.11 1042.98 C 254.56 1042.43 256.99 1041.83 259.45 1041.30 C 260.31 1047.05 258.76 1053.00 260.55 1058.61 C 258.13 1058.76 255.71 1058.81 253.29 1058.80 C 254.41 1054.26 253.82 1049.56 253.94 1044.94 C 253.48 1044.45 252.56 1043.47 252.11 1042.98 Z" />
<path fill="#221e1c" stroke="#221e1c" stroke-width="0.09375" opacity="0.69" d=" M 288.00 1043.15 C 290.50 1042.27 293.65 1040.70 295.84 1043.11 C 298.69 1040.53 303.96 1040.71 305.27 1044.80 C 305.80 1048.59 305.39 1052.45 305.43 1056.28 C 305.96 1057.07 306.48 1057.87 307.01 1058.68 C 304.34 1058.76 301.67 1058.79 299.01 1058.84 C 300.51 1054.36 299.56 1049.58 299.82 1044.98 C 298.20 1043.92 296.55 1044.77 295.13 1045.73 C 295.46 1050.09 294.80 1054.53 295.89 1058.82 C 293.29 1058.81 290.70 1058.75 288.11 1058.62 C 288.57 1057.84 289.04 1057.06 289.52 1056.30 C 289.43 1052.77 289.41 1049.24 289.51 1045.72 C 289.00 1044.85 288.50 1044.00 288.00 1043.15 Z" />
<path fill="#221e1c" stroke="#221e1c" stroke-width="0.09375" opacity="0.69" d=" M 312.57 1045.66 C 313.36 1042.63 316.55 1041.50 319.33 1041.14 C 319.17 1041.74 318.85 1042.95 318.70 1043.55 C 316.57 1045.28 317.07 1048.79 318.52 1050.84 C 317.43 1052.07 315.59 1052.95 316.00 1054.93 C 319.42 1056.28 323.28 1055.09 326.73 1056.34 C 329.06 1057.39 330.41 1060.51 328.75 1062.71 C 326.92 1066.26 322.54 1066.82 318.98 1067.09 C 316.15 1066.99 312.65 1066.09 311.57 1063.12 C 311.74 1061.46 312.96 1060.31 313.99 1059.15 C 311.51 1057.06 313.07 1054.23 314.32 1051.96 C 313.15 1050.09 311.56 1047.96 312.57 1045.66 M 315.36 1060.36 C 314.53 1062.26 315.66 1064.98 318.00 1064.75 C 320.37 1064.73 323.42 1065.27 325.03 1063.05 C 325.13 1061.67 324.41 1060.50 322.99 1060.43 C 320.46 1060.09 317.88 1060.00 315.36 1060.36 Z" />
<path fill="#221e1c" stroke="#221e1c" stroke-width="0.09375" opacity="0.69" d=" M 319.33 1043.12 C 320.01 1042.52 320.70 1041.95 321.41 1041.42 C 324.09 1042.93 327.01 1042.39 329.77 1041.44 C 329.77 1043.50 328.75 1044.49 326.70 1044.41 C 326.90 1045.11 327.30 1046.49 327.50 1047.19 C 326.43 1050.31 324.24 1052.99 320.61 1053.05 C 320.78 1052.31 321.10 1050.81 321.27 1050.06 L 321.94 1050.33 C 321.80 1047.93 323.33 1042.71 319.33 1043.12 Z" />
<path fill="#221e1c" stroke="#221e1c" stroke-width="0.09375" opacity="0.69" d=" M 372.69 1042.97 C 374.65 1042.54 376.58 1041.96 378.47 1041.24 C 378.85 1041.81 379.61 1042.95 379.99 1043.52 C 381.55 1042.56 383.06 1041.19 385.03 1041.37 C 387.37 1040.94 389.41 1042.86 390.00 1045.01 C 390.94 1048.72 390.47 1052.61 390.20 1056.39 C 390.66 1056.87 391.57 1057.84 392.03 1058.32 C 389.12 1058.99 386.11 1058.97 383.18 1058.58 C 385.38 1054.08 384.65 1048.76 383.77 1044.02 C 382.50 1044.58 381.25 1045.18 380.00 1045.80 C 380.15 1049.33 379.74 1052.91 380.22 1056.43 L 381.33 1057.71 C 379.13 1059.81 375.73 1058.46 373.01 1058.68 C 373.49 1057.86 373.98 1057.05 374.47 1056.25 C 374.45 1052.77 374.43 1049.29 374.41 1045.82 C 373.84 1044.86 373.26 1043.91 372.69 1042.97 Z" />
<path fill="#221e1c" stroke="#221e1c" stroke-width="0.09375" opacity="0.69" d=" M 397.22 1042.92 C 399.51 1042.67 401.82 1041.17 404.08 1041.81 C 405.58 1047.24 402.80 1053.53 405.70 1058.64 C 403.21 1058.73 400.73 1058.80 398.25 1058.82 C 399.13 1054.60 398.87 1050.25 398.77 1045.99 C 398.83 1044.73 397.76 1043.90 397.22 1042.92 Z" />
<path fill="#221e1c" stroke="#221e1c" stroke-width="0.09375" opacity="0.69" d=" M 409.96 1041.73 C 412.97 1041.64 415.99 1041.65 419.00 1041.76 C 418.60 1042.26 417.80 1043.26 417.40 1043.76 C 418.24 1046.70 418.63 1050.00 420.99 1052.21 C 422.33 1049.51 423.11 1046.59 423.86 1043.70 C 423.37 1043.21 422.39 1042.24 421.90 1041.76 C 423.83 1041.72 425.77 1041.70 427.71 1041.72 C 426.98 1042.61 426.24 1043.52 425.52 1044.43 C 423.01 1049.08 421.75 1054.22 419.74 1059.07 C 418.59 1058.64 416.98 1058.57 416.65 1057.12 C 414.50 1051.96 413.01 1046.46 409.96 1041.73 Z" />
<path fill="#221e1c" stroke="#221e1c" stroke-width="0.09375" opacity="0.69" d=" M 453.02 1042.91 C 454.81 1042.50 456.56 1041.97 458.30 1041.36 C 458.95 1042.05 459.61 1042.77 460.27 1043.50 C 462.04 1042.21 464.01 1041.22 466.26 1041.26 C 466.81 1042.71 467.82 1044.25 466.82 1045.80 C 465.06 1047.08 463.34 1045.60 461.71 1044.91 C 458.81 1047.89 459.60 1052.31 459.79 1056.08 C 459.87 1057.28 461.38 1057.71 462.08 1058.55 C 459.11 1058.80 456.13 1058.85 453.16 1058.74 C 454.79 1055.40 454.32 1051.59 454.28 1048.00 C 454.31 1046.20 453.67 1044.53 453.02 1042.91 Z" />
<path fill="#221e1c" stroke="#221e1c" stroke-width="0.09375" opacity="0.69" d=" M 490.14 1042.83 C 492.51 1042.39 494.87 1041.87 497.25 1041.49 C 497.26 1046.01 497.10 1050.53 497.22 1055.05 C 496.97 1056.49 498.00 1057.55 498.80 1058.62 C 496.27 1058.71 493.75 1058.82 491.23 1058.86 C 492.01 1054.31 492.03 1049.63 491.55 1045.07 C 491.20 1044.51 490.49 1043.39 490.14 1042.83 Z" />
<path fill="#221e1c" stroke="#221e1c" stroke-width="0.09375" opacity="0.69" d=" M 650.12 1042.80 C 652.43 1042.44 654.72 1041.48 657.10 1041.76 C 657.55 1043.12 657.35 1044.56 657.30 1045.99 C 657.08 1050.25 657.14 1054.57 657.90 1058.79 C 655.65 1058.78 653.40 1058.77 651.16 1058.80 C 651.95 1054.90 651.87 1050.89 651.72 1046.95 C 651.86 1045.34 650.88 1044.07 650.12 1042.80 Z" />
<path fill="#221e1c" stroke="#221e1c" stroke-width="0.09375" opacity="0.69" d=" M 763.92 1042.63 C 766.30 1042.08 768.69 1041.63 771.13 1041.42 C 771.24 1045.64 771.04 1049.86 771.18 1054.09 C 770.67 1057.19 776.27 1056.94 776.32 1054.22 C 776.57 1051.02 776.41 1047.82 776.55 1044.63 C 776.11 1044.20 775.21 1043.32 774.76 1042.89 C 776.97 1042.20 779.22 1041.70 781.50 1041.32 C 781.79 1046.27 781.46 1051.22 781.66 1056.18 C 782.01 1057.19 782.37 1058.23 782.68 1059.28 C 780.32 1059.13 777.23 1060.12 775.85 1057.52 C 774.27 1058.25 772.74 1059.19 771.01 1059.48 C 769.48 1059.56 768.22 1058.58 766.86 1058.10 C 764.68 1053.84 766.15 1049.02 765.52 1044.52 C 765.12 1044.04 764.32 1043.10 763.92 1042.63 Z" />
<path fill="#221e1c" stroke="#221e1c" stroke-width="0.09375" opacity="0.69" d=" M 808.05 1042.82 C 810.30 1042.26 812.58 1041.75 814.90 1041.51 C 815.20 1047.25 814.30 1053.10 815.64 1058.75 C 813.17 1058.77 810.72 1058.76 808.27 1058.74 C 809.62 1055.31 809.27 1051.58 809.28 1047.99 C 809.37 1046.16 808.68 1044.47 808.05 1042.82 Z" />
<path fill="#221e1c" stroke="#221e1c" stroke-width="0.09375" opacity="0.69" d=" M 824.01 1044.00 C 826.79 1041.07 831.94 1040.33 835.25 1042.75 C 836.85 1043.88 838.24 1046.73 836.03 1048.02 C 832.86 1048.82 832.34 1044.98 831.97 1042.79 C 830.10 1042.95 828.36 1043.85 827.59 1045.64 C 827.05 1048.02 827.16 1050.52 827.38 1052.95 C 827.55 1054.85 829.28 1056.26 831.04 1056.73 C 833.02 1057.36 834.83 1055.99 836.64 1055.42 C 835.31 1059.60 829.77 1060.27 826.28 1058.60 C 820.74 1056.31 819.63 1047.90 824.01 1044.00 Z" />
<path fill="#221e1c" stroke="#221e1c" stroke-width="0.09375" opacity="0.69" d=" M 919.23 1042.76 C 921.56 1042.29 923.90 1041.81 926.27 1041.54 C 926.49 1047.30 925.88 1053.10 926.80 1058.82 C 924.20 1058.81 921.60 1058.75 919.02 1058.56 C 919.41 1058.18 920.20 1057.42 920.59 1057.04 C 920.36 1052.30 921.84 1047.03 919.23 1042.76 Z" />
<path fill="#221e1c" stroke="#221e1c" stroke-width="0.09375" opacity="0.69" d=" M 935.13 1044.13 C 938.30 1040.24 945.78 1040.19 948.05 1045.06 C 948.76 1046.57 949.63 1048.41 948.80 1050.07 C 945.60 1050.71 942.32 1050.29 939.09 1050.26 C 938.85 1052.34 938.67 1055.05 940.85 1056.23 C 943.23 1057.81 945.91 1056.18 948.17 1055.22 C 946.15 1060.91 938.03 1060.39 934.62 1056.41 C 931.91 1052.90 931.87 1047.30 935.13 1044.13 M 938.96 1048.81 C 940.52 1048.74 942.09 1048.67 943.67 1048.61 C 943.65 1046.59 944.06 1042.93 941.03 1043.12 C 938.63 1043.96 939.17 1046.81 938.96 1048.81 Z" />
</svg>
